<svg width="48" height="45" viewBox="0 0 48 45" fill="none" xmlns="http://www.w3.org/2000/svg">
<path d="M23.994 15.6035C19.587 15.6035 15.9906 18.8872 15.9906 22.9109C15.9906 26.9346 19.587 30.2183 23.994 30.2183C28.401 30.2183 31.9974 26.9346 31.9974 22.9109C31.9974 18.8872 28.401 15.6035 23.994 15.6035ZM47.9982 22.9109C47.9982 19.8849 48.0282 16.8863 47.8421 13.8657C47.6559 10.3573 46.7794 7.24358 43.9695 4.67804C41.1536 2.10702 37.7493 1.31215 33.9067 1.14221C30.5924 0.972268 27.3082 0.999677 24 0.999677C20.6857 0.999677 17.4015 0.972268 14.0933 1.14221C10.2507 1.31215 6.8404 2.11251 4.0305 4.67804C1.2146 7.24906 0.344017 10.3573 0.157891 13.8657C-0.0282345 16.8917 0.00178587 19.8904 0.00178587 22.9109C0.00178587 25.9314 -0.0282345 28.9355 0.157891 31.956C0.344017 35.4645 1.22061 38.5782 4.0305 41.1437C6.84641 43.7148 10.2507 44.5096 14.0933 44.6796C17.4075 44.8495 20.6917 44.8221 24 44.8221C27.3142 44.8221 30.5984 44.8495 33.9067 44.6796C37.7493 44.5096 41.1596 43.7093 43.9695 41.1437C46.7854 38.5727 47.6559 35.4645 47.8421 31.956C48.0342 28.9355 47.9982 25.9369 47.9982 22.9109ZM23.994 34.1543C17.1794 34.1543 11.6797 29.1329 11.6797 22.9109C11.6797 16.6889 17.1794 11.6675 23.994 11.6675C30.8086 11.6675 36.3083 16.6889 36.3083 22.9109C36.3083 29.1329 30.8086 34.1543 23.994 34.1543ZM36.8126 13.8328C35.2216 13.8328 33.9367 12.6597 33.9367 11.207C33.9367 9.75429 35.2216 8.58116 36.8126 8.58116C38.4037 8.58116 39.6886 9.75429 39.6886 11.207C39.689 11.552 39.615 11.8936 39.4706 12.2124C39.3263 12.5312 39.1144 12.8208 38.8473 13.0647C38.5801 13.3086 38.2629 13.502 37.9138 13.6338C37.5646 13.7656 37.1904 13.8333 36.8126 13.8328Z" fill="white"/>
</svg>
