<svg width="48" height="44" viewBox="0 0 48 44" fill="none" xmlns="http://www.w3.org/2000/svg">
<path d="M24 0C10.7464 0 0 9.81187 0 21.9128C0 34.0138 10.7464 43.8257 24 43.8257C37.2536 43.8257 48 34.0138 48 21.9128C48 9.81187 37.2536 0 24 0ZM37.7143 12.4091L35.5286 14.3216C35.3357 14.4537 35.2446 14.6689 35.2821 14.8792V28.9514C35.2446 29.1666 35.3357 29.3818 35.5286 29.509L37.6714 31.4215V31.847H26.9143V31.441L29.1268 29.4796C29.3464 29.2791 29.3464 29.2204 29.3464 28.922V17.5352L23.1857 31.7981H22.3554L15.1875 17.5352V27.0976C15.1232 27.4987 15.2786 27.9046 15.5893 28.1932L18.4714 31.3774V31.803H10.2857V31.3774L13.1679 28.1932C13.3197 28.05 13.4327 27.8763 13.4978 27.686C13.563 27.4958 13.5784 27.2943 13.5429 27.0976V16.0433C13.5804 15.7352 13.4518 15.4368 13.1946 15.2265L10.6339 12.4091V11.9836H18.5893L24.7286 24.2851L30.1339 11.9934H37.7143V12.4091Z" fill="white"/>
</svg>
