<svg width="48" height="44" viewBox="0 0 48 44" fill="none" xmlns="http://www.w3.org/2000/svg">
<path fill-rule="evenodd" clip-rule="evenodd" d="M48 21.9128C48 34.0142 37.254 43.8257 24 43.8257C10.746 43.8257 0 34.0142 0 21.9128C0 9.81148 10.746 0 24 0C37.254 0 48 9.81148 48 21.9128ZM39.376 20.1927C39.764 20.6985 39.984 21.2956 40.008 21.9128C40.0185 22.5167 39.8414 23.1108 39.4974 23.6266C39.1534 24.1424 38.6564 24.5587 38.064 24.8272C38.092 25.1486 38.092 25.47 38.064 25.7914C38.064 30.6999 31.8 34.688 24.072 34.688C16.344 34.688 10.08 30.6999 10.08 25.7914C10.053 25.4705 10.053 25.1482 10.08 24.8272C9.62234 24.6316 9.2165 24.3479 8.89038 23.9955C8.56425 23.643 8.32557 23.2303 8.19075 22.7857C8.05592 22.341 8.02815 21.875 8.10934 21.4196C8.19053 20.9642 8.37875 20.5303 8.66107 20.1477C8.94339 19.765 9.31311 19.4427 9.74482 19.2029C10.1765 18.9631 10.66 18.8115 11.162 18.7586C11.6639 18.7056 12.1725 18.7525 12.6528 18.896C13.133 19.0395 13.5735 19.2763 13.944 19.5901C16.7095 17.8776 19.9629 16.9408 23.304 16.8948L25.08 9.29104C25.0999 9.20302 25.1388 9.11948 25.1944 9.04527C25.25 8.97107 25.3211 8.90767 25.4037 8.85875C25.4863 8.80983 25.5787 8.77637 25.6756 8.7603C25.7724 8.74423 25.8718 8.74588 25.968 8.76514L31.848 9.83887C32.1352 9.38842 32.5887 9.04617 33.1274 8.87356C33.666 8.70094 34.2543 8.70926 34.7868 8.89702C35.3193 9.08478 35.7611 9.43969 36.0329 9.89804C36.3046 10.3564 36.3885 10.8882 36.2695 11.3979C36.1505 11.9077 35.8365 12.362 35.3837 12.6794C34.9309 12.9967 34.369 13.1563 33.7989 13.1296C33.2288 13.1028 32.6879 12.8914 32.2731 12.5332C31.8584 12.1751 31.5971 11.6937 31.536 11.1755L26.4 10.1895L24.84 17.0263C28.1405 17.0909 31.3498 18.0271 34.08 19.7216C34.4445 19.4016 34.8805 19.1575 35.3581 19.006C35.8357 18.8546 36.3436 18.7993 36.8468 18.8441C37.35 18.8889 37.8366 19.0326 38.2732 19.2654C38.7098 19.4982 39.086 19.8145 39.376 20.1927V20.1927ZM16.412 22.8861C16.2368 23.1255 16.115 23.3939 16.0534 23.6763C15.9919 23.9586 15.9919 24.2492 16.0533 24.5315C16.1775 25.1017 16.5446 25.6035 17.074 25.9265C17.6034 26.2496 18.2516 26.3674 18.8761 26.254C19.1853 26.1979 19.4794 26.0867 19.7416 25.9268C20.0037 25.7669 20.2288 25.5614 20.404 25.3221C20.7578 24.8388 20.8868 24.2469 20.7627 23.6767C20.6385 23.1065 20.2714 22.6047 19.742 22.2817C19.2126 21.9587 18.5644 21.8409 17.9399 21.9542C17.3154 22.0676 16.7658 22.4028 16.412 22.8861ZM24.024 31.8174C26.154 31.8978 28.25 31.3901 29.952 30.2178C30.0793 30.1045 30.1521 29.9496 30.1543 29.7873C30.1566 29.625 30.0881 29.4685 29.964 29.3523C29.9025 29.2947 29.8293 29.2488 29.7484 29.2171C29.6675 29.1854 29.5805 29.1685 29.4925 29.1675C29.3147 29.1655 29.1433 29.228 29.016 29.3413C27.5595 30.2953 25.7899 30.7669 24 30.678C22.2123 30.7509 20.451 30.2638 19.008 29.2975C18.8837 29.2043 18.7258 29.1567 18.5651 29.1639C18.4044 29.1711 18.2524 29.2326 18.1387 29.3365C18.0249 29.4403 17.9576 29.5791 17.9497 29.7258C17.9418 29.8725 17.9939 30.0166 18.096 30.1302C19.7987 31.3017 21.8937 31.898 24.024 31.8174V31.8174ZM28.186 26.0142C28.582 26.2552 29.022 26.4707 29.496 26.4707C29.8215 26.4742 30.1444 26.4171 30.445 26.303C30.7455 26.1888 31.0175 26.02 31.2443 25.8068C31.4711 25.5935 31.6479 25.3404 31.7641 25.0627C31.8803 24.7851 31.9333 24.4888 31.92 24.1918C31.9198 23.8133 31.8123 23.4413 31.6079 23.112C31.4034 22.7827 31.1091 22.5074 30.7534 22.3128C30.3978 22.1183 29.9931 22.0112 29.5786 22.002C29.1642 21.9927 28.7542 22.0816 28.3886 22.2601C28.023 22.4385 27.7142 22.7004 27.4924 23.0202C27.2706 23.3399 27.1433 23.7067 27.1229 24.0848C27.1025 24.4628 27.1897 24.8392 27.376 25.1774C27.5623 25.5155 27.8414 25.8038 28.186 26.0142V26.0142Z" fill="white"/>
</svg>
