<svg width="592" height="499" viewBox="0 0 592 499" fill="none" xmlns="http://www.w3.org/2000/svg">
<g opacity="0.1">
<path d="M574.302 189.054C574.302 189.054 576.37 197.172 569.514 206.235C569.514 206.235 580.714 205.923 586.101 212.639C586.101 212.639 584.306 202.877 592.001 195.458C592.001 195.458 581.484 197.176 574.302 189.054Z" fill="white"/>
</g>
<path d="M6.80477 314.334C6.80477 314.334 9.74335 325.87 0 338.751C0 338.751 15.9184 338.307 23.5738 347.852C23.5738 347.852 21.0221 333.978 31.9584 323.434C31.9584 323.434 17.012 325.876 6.80477 314.334Z" fill="white"/>
<g opacity="0.6">
<path d="M540.753 313.389C540.753 313.389 542.821 321.506 535.965 330.569C535.965 330.569 547.166 330.257 552.552 336.973C552.552 336.973 550.757 327.211 558.452 319.792C558.452 319.792 547.935 321.51 540.753 313.389Z" fill="white"/>
</g>
<g opacity="0.300003">
<g opacity="0.300003">
<path opacity="0.300003" d="M557.978 479.355C557.978 487.79 441.3 494.627 297.371 494.627C153.442 494.627 36.7637 487.79 36.7637 479.355C36.7637 470.921 153.442 464.084 297.371 464.084C441.3 464.084 557.978 470.921 557.978 479.355Z" fill="#000072"/>
</g>
</g>
<path d="M516.738 460.251C506.395 471.204 491.223 477.365 475.38 477.365H119.361C103.518 477.365 88.3455 471.204 78.0033 460.251C72.2896 454.197 68.0655 447.452 65.2246 440.552C65.2139 440.552 65.2139 440.552 65.2139 440.543C56.2762 418.89 60.8302 395.654 75.088 387.296C99.0282 373.244 117.489 390.416 117.489 390.416C119.532 386.033 122.298 382.233 125.394 378.978C137.056 366.674 153.399 361.99 153.399 361.99C144.515 315.449 164.348 273.282 164.348 273.282C164.348 273.282 213.218 307.014 297.37 307.014C381.523 307.014 430.393 273.282 430.393 273.282C430.393 273.282 450.226 315.449 441.342 361.99C441.342 361.99 467.506 369.493 477.252 390.416C477.252 390.416 495.713 373.244 519.653 387.296C538.454 398.327 540.38 435.227 516.738 460.251Z" fill="#B11313"/>
<g opacity="0.300003">
<g opacity="0.300003">
<path opacity="0.300003" d="M131.682 433.324C134.981 404.16 117.488 391.574 117.488 391.574C119.531 387.191 122.298 383.392 125.394 380.136C152.526 409.777 131.682 433.324 131.682 433.324Z" fill="#000072"/>
</g>
</g>
<g opacity="0.300003">
<g opacity="0.300003">
<path opacity="0.300003" d="M463.154 433.324C459.856 404.16 477.348 391.574 477.348 391.574C475.305 387.191 472.539 383.392 469.443 380.136C442.31 409.777 463.154 433.324 463.154 433.324Z" fill="#000072"/>
</g>
</g>
<g opacity="0.300003">
<g opacity="0.300003">
<path opacity="0.300003" d="M465.925 457.806C463.389 457.23 460.776 457.031 458.179 457.292C454.479 457.663 448.113 458.238 438.776 458.877C424.722 459.84 412.449 450.194 411.49 437.352C411.077 431.835 411.981 427.551 412.309 426.226C408.639 440.555 401.862 453.756 397.73 460.996C376.755 461.794 350.188 462.444 317.336 462.635C315.564 404.656 352.44 350.291 352.44 350.291C295.938 391.574 242.391 350.291 242.391 350.291C279.674 410.733 277.733 460.117 277.733 460.117L284.012 462.667C248.136 462.529 219.444 461.847 197.1 460.996C192.968 453.757 186.191 440.555 182.521 426.226C182.862 427.605 183.826 432.184 183.284 438.022C182.118 450.589 169.834 459.821 156.064 458.878C146.721 458.238 140.353 457.663 136.651 457.292C134.054 457.031 131.441 457.23 128.906 457.806C88.3967 467.017 65.9492 442.521 65.2266 441.711C68.0675 448.611 72.2916 455.355 78.0053 461.41C88.3475 472.362 103.52 478.523 119.363 478.523H297.415H475.467C491.31 478.523 506.483 472.362 516.825 461.41C522.538 455.355 526.763 448.611 529.604 441.711C528.881 442.521 506.433 467.017 465.925 457.806Z" fill="#000072"/>
</g>
</g>
<g opacity="0.300003">
<g opacity="0.300003">
<path opacity="0.300003" d="M182.524 426.227C182.454 425.947 182.41 425.794 182.41 425.794C182.447 425.939 182.487 426.082 182.524 426.227Z" fill="#000072"/>
</g>
</g>
<g opacity="0.300003">
<g opacity="0.300003">
<path opacity="0.300003" d="M412.311 426.227C412.348 426.082 412.388 425.939 412.424 425.794C412.424 425.794 412.38 425.947 412.311 426.227Z" fill="#000072"/>
</g>
</g>
<path d="M297.336 475.154H475.389C490.325 475.154 504.382 469.343 513.956 459.21C526.324 446.119 532.423 427.991 529.874 411.9C528.38 402.479 523.933 394.966 517.671 391.29C496.498 378.858 480.557 393.32 479.889 393.94C479.027 394.743 477.784 395.102 476.572 394.89C475.361 394.681 474.345 393.934 473.863 392.899C464.886 373.623 440.488 366.439 440.243 366.368C438.477 365.862 437.395 364.24 437.713 362.575C444.779 325.59 433.108 290.985 428.639 279.647C415.259 287.637 369.217 311.545 297.379 311.545C225.541 311.545 179.498 287.637 166.119 279.647C161.65 290.985 149.978 325.59 157.044 362.575C157.362 364.24 156.28 365.862 154.514 366.368C154.273 366.439 129.836 373.7 120.894 392.899C120.412 393.934 119.396 394.681 118.186 394.89C116.976 395.101 115.73 394.743 114.868 393.94C114.202 393.33 98.1238 378.937 77.0862 391.29C70.8247 394.966 66.3769 402.479 64.8843 411.9C62.3345 427.991 68.4332 446.12 80.8013 459.21C90.3755 469.343 104.433 475.154 119.369 475.154H297.336ZM475.389 481.893H119.369C102.286 481.893 86.1926 475.229 75.2163 463.612C61.4929 449.087 54.7362 428.902 57.5833 410.935C59.4085 399.414 64.9182 390.424 73.0972 385.622C92.5627 374.194 108.987 381.658 116.204 386.306C125.359 370.996 142.345 363.487 149.277 360.951C141.557 315.102 160.154 274.834 160.966 273.11C161.413 272.158 162.315 271.448 163.41 271.183C164.508 270.918 165.675 271.127 166.579 271.752C167.057 272.08 215.586 304.807 297.379 304.807C379.171 304.807 427.701 272.08 428.181 271.75C429.086 271.127 430.256 270.919 431.349 271.184C432.444 271.45 433.345 272.159 433.792 273.11C434.604 274.834 453.2 315.102 445.48 360.951C452.413 363.487 469.399 370.996 478.553 386.306C485.77 381.658 502.193 374.19 521.66 385.622C529.839 390.424 535.349 399.413 537.175 410.935C540.022 428.901 533.265 449.087 519.541 463.612C508.565 475.229 492.471 481.893 475.389 481.893Z" fill="#000072"/>
<path d="M119.635 388.83C120.039 389.082 120.228 389.221 120.507 389.409C120.771 389.588 120.984 389.759 121.226 389.936C121.705 390.29 122.11 390.662 122.544 391.03C122.988 391.391 123.354 391.789 123.753 392.175C124.155 392.558 124.532 392.954 124.886 393.362C126.356 394.972 127.591 396.706 128.693 398.496C130.902 402.078 132.369 405.939 133.389 409.827C134.383 413.731 134.751 417.695 134.751 421.609C134.759 423.565 134.52 425.515 134.374 427.442C134.056 429.368 133.709 431.277 133.268 433.16C133.183 433.519 132.796 433.747 132.403 433.671C132.104 433.612 131.888 433.394 131.838 433.135L131.829 433.088C131.468 431.197 131.243 429.333 130.971 427.486L130.443 424.737C130.249 423.828 130.177 422.909 129.912 422.017C129.417 420.232 129.151 418.427 128.526 416.702C128.254 415.834 128.04 414.954 127.743 414.1L126.792 411.564C125.48 408.218 123.877 405.019 121.945 402.061C121.443 401.336 120.972 400.586 120.425 399.899L119.635 398.845L118.788 397.844C118.251 397.154 117.628 396.547 117.045 395.924C116.744 395.628 116.446 395.307 116.143 395.044C115.997 394.909 115.841 394.748 115.703 394.631C115.581 394.523 115.38 394.351 115.366 394.326L114.57 392.866C113.715 391.297 114.414 389.393 116.131 388.612C117.294 388.083 118.63 388.209 119.635 388.83Z" fill="#000072"/>
<path d="M479.305 394.326C479.292 394.351 479.09 394.523 478.968 394.631C478.83 394.749 478.674 394.909 478.529 395.044C478.225 395.308 477.927 395.629 477.626 395.924C477.043 396.547 476.42 397.154 475.883 397.845L475.036 398.845L474.246 399.899C473.699 400.586 473.229 401.336 472.726 402.061C470.794 405.019 469.191 408.219 467.879 411.564L466.928 414.1C466.631 414.954 466.418 415.834 466.145 416.702C465.52 418.427 465.255 420.232 464.759 422.017C464.494 422.91 464.422 423.828 464.229 424.737L463.7 427.486C463.429 429.334 463.203 431.198 462.842 433.089L462.833 433.135C462.764 433.497 462.387 433.739 461.991 433.676C461.69 433.628 461.464 433.417 461.404 433.16C460.962 431.277 460.615 429.368 460.297 427.442C460.151 425.515 459.912 423.565 459.92 421.609C459.921 417.695 460.288 413.731 461.282 409.827C462.303 405.939 463.77 402.078 465.978 398.496C467.08 396.706 468.316 394.972 469.786 393.362C470.139 392.954 470.516 392.558 470.918 392.175C471.317 391.79 471.683 391.391 472.127 391.03C472.561 390.663 472.966 390.29 473.445 389.937C473.687 389.76 473.9 389.589 474.165 389.409C474.443 389.222 474.632 389.082 475.037 388.83C476.622 387.844 478.782 388.218 479.862 389.666C480.594 390.646 480.642 391.869 480.104 392.862L479.305 394.326Z" fill="#000072"/>
<path d="M157.072 362.754L157.373 365.446L157.748 368.457C157.881 369.482 158.057 370.512 158.154 371.593C158.262 372.67 158.326 373.786 158.266 374.993L158.266 374.998C158.257 375.188 158.081 375.334 157.873 375.326C157.798 375.323 157.73 375.3 157.673 375.263C156.59 374.566 155.657 373.767 154.85 372.895C154.024 372.03 153.347 371.086 152.688 370.118C152.043 369.144 151.456 368.131 150.945 367.07C150.704 366.535 150.455 365.997 150.262 365.429C150.157 365.15 150.063 364.86 149.979 364.563C149.888 364.243 149.826 364.008 149.747 363.554C149.427 361.715 150.8 359.987 152.813 359.695C154.826 359.403 156.718 360.657 157.037 362.495C157.048 362.554 157.056 362.613 157.063 362.672L157.072 362.754Z" fill="#000072"/>
<path d="M445.096 363.554C445.017 364.008 444.956 364.243 444.865 364.563C444.781 364.86 444.686 365.15 444.582 365.43C444.389 365.997 444.139 366.535 443.899 367.07C443.388 368.132 442.801 369.144 442.156 370.118C441.496 371.086 440.82 372.03 439.994 372.895C439.187 373.767 438.254 374.567 437.17 375.263C437.001 375.373 436.766 375.335 436.646 375.18C436.603 375.125 436.581 375.061 436.578 374.998L436.578 374.993C436.518 373.786 436.582 372.67 436.69 371.593C436.787 370.512 436.963 369.483 437.095 368.457L437.471 365.446L437.772 362.754L437.779 362.683C437.986 360.83 439.798 359.482 441.826 359.671C443.854 359.86 445.33 361.514 445.123 363.366C445.116 363.426 445.106 363.495 445.096 363.554Z" fill="#000072"/>
<path d="M174.97 396.147C174.97 396.147 158.085 384.187 153.411 363.154C153.411 363.154 143.696 358.669 136.982 370.803C136.982 370.803 144.727 407.844 182.414 425.795C182.414 425.795 176.969 406.726 174.97 396.147Z" fill="#0096F2"/>
<path d="M140.882 371.285C142.403 376.941 150.594 402.77 176.662 418.762C175.013 412.65 172.826 404.202 171.573 397.949C167.662 394.854 154.935 383.656 150.259 365.752C148.136 365.418 144.313 365.808 140.882 371.285ZM182.411 429.164C181.829 429.164 181.244 429.038 180.706 428.783C141.883 410.29 133.687 373.013 133.356 371.435C133.204 370.704 133.32 369.948 133.688 369.284C137.882 361.705 143.365 359.556 147.227 359.089C151.5 358.568 154.719 359.984 155.072 360.147C156.079 360.612 156.799 361.473 157.023 362.484C161.351 381.961 177.075 393.375 177.234 393.488C177.955 394.004 178.447 394.75 178.602 395.574C180.551 405.89 185.927 424.756 185.981 424.945C186.349 426.233 185.851 427.6 184.71 428.431C184.043 428.915 183.23 429.164 182.411 429.164Z" fill="#000072"/>
<path d="M419.874 396.147C419.874 396.147 436.759 384.187 441.433 363.154C441.433 363.154 451.148 358.669 457.862 370.803C457.862 370.803 450.117 407.844 412.43 425.795C412.43 425.795 417.876 406.726 419.874 396.147Z" fill="#0096F2"/>
<path d="M423.266 397.949C422.012 404.203 419.826 412.65 418.176 418.763C444.243 402.771 452.434 376.946 453.957 371.284C451.878 367.959 449.421 366.104 446.642 365.769C445.862 365.674 445.148 365.713 444.567 365.797C439.882 383.676 427.173 394.856 423.266 397.949ZM412.427 429.164C411.609 429.164 410.796 428.915 410.129 428.43C408.988 427.6 408.49 426.233 408.858 424.945C408.912 424.756 414.287 405.89 416.236 395.574C416.392 394.747 416.88 394.004 417.605 393.488C417.763 393.375 433.487 381.961 437.816 362.484C438.04 361.473 438.759 360.612 439.767 360.147C440.119 359.984 443.337 358.567 447.611 359.089C451.473 359.556 456.957 361.705 461.15 369.284C461.518 369.948 461.635 370.705 461.482 371.435C461.152 373.013 452.956 410.29 414.133 428.783C413.595 429.038 413.01 429.164 412.427 429.164Z" fill="#000072"/>
<path d="M225.842 310.087C225.842 310.087 232.182 326.501 230.357 350.45L251.246 367.051C251.246 367.051 256.705 338.118 247.408 314.088L225.842 310.087Z" fill="#0096F2"/>
<path d="M234.157 349.001L248.441 360.352C249.408 351.119 250.233 333.018 244.595 317.003L231.029 314.486C232.782 321.149 235.122 333.407 234.157 349.001ZM251.251 370.42C250.374 370.42 249.511 370.134 248.829 369.592L227.94 352.992C227.068 352.298 226.602 351.27 226.682 350.217C228.425 327.331 222.426 311.363 222.366 311.204C221.927 310.06 222.194 308.788 223.067 307.875C223.939 306.962 225.282 306.55 226.58 306.785L248.145 310.786C249.416 311.021 250.457 311.849 250.889 312.965C260.399 337.541 255.114 366.406 254.885 367.623C254.659 368.822 253.742 369.816 252.487 370.224C252.084 370.355 251.666 370.42 251.251 370.42Z" fill="#000072"/>
<path d="M368.997 310.087C368.997 310.087 362.657 326.501 364.481 350.45L343.592 367.051C343.592 367.051 338.133 338.118 347.431 314.088L368.997 310.087Z" fill="#0096F2"/>
<path d="M350.242 317.003C344.594 333.046 345.422 351.132 346.393 360.355L360.68 349.001C359.716 333.407 362.056 321.149 363.809 314.486L350.242 317.003ZM343.587 370.42C343.172 370.42 342.754 370.355 342.351 370.224C341.095 369.816 340.179 368.822 339.953 367.623C339.723 366.406 334.439 337.541 343.949 312.965C344.381 311.849 345.422 311.021 346.692 310.786L368.258 306.785C369.56 306.54 370.903 306.961 371.775 307.876C372.646 308.791 372.912 310.062 372.471 311.206C372.375 311.458 366.419 327.4 368.156 350.217C368.236 351.27 367.77 352.298 366.897 352.992L346.009 369.592C345.327 370.134 344.464 370.42 343.587 370.42Z" fill="#000072"/>
<path d="M276.587 467.998C271.331 491.575 241.368 502.362 220.311 487.911C203.83 476.609 185.731 450.758 174.548 394.072C173.484 388.639 172.473 382.915 171.537 376.899L178.655 370.738L225.844 329.863C225.844 329.863 272.331 395.597 277.481 445.987V445.996C278.289 453.8 278.098 461.235 276.587 467.998Z" fill="#B11313"/>
<g opacity="0.300003">
<g opacity="0.300003">
<path opacity="0.300003" d="M276.588 467.998C271.332 491.575 241.369 502.362 220.312 487.911C203.831 476.609 185.732 450.758 174.549 394.072C158.812 385.413 153.407 363.148 153.407 363.148C146.619 333.585 154.45 306.335 154.45 306.335C152.96 342.319 168.597 359.484 175.046 364.994C176.844 366.529 178.1 368.51 178.647 370.701C178.65 370.713 178.653 370.726 178.656 370.738C190.18 417.308 209.481 474.043 237.485 478.105C264.522 482.022 276.173 449.854 277.482 445.996C278.29 453.8 278.099 461.235 276.588 467.998Z" fill="#000072"/>
</g>
</g>
<path d="M229.885 326.72C235.258 332.065 239.507 338.027 243.359 344.186C245.271 347.273 247.014 350.44 248.747 353.611C250.48 356.784 252.177 359.973 253.83 363.182C260.453 376.012 266.483 389.132 271.492 402.651C276.505 416.153 280.542 430.105 282.014 444.631C282.722 451.882 282.766 459.302 281.416 466.73C281.124 468.553 280.698 470.511 280.041 472.395C279.445 474.293 278.6 476.124 277.685 477.919C275.775 481.479 273.231 484.762 270.196 487.602C264.064 493.226 255.962 497.018 247.36 498.132C243.07 498.745 238.664 498.611 234.388 497.919C230.116 497.178 225.99 495.776 222.219 493.847C220.374 492.851 218.516 491.755 216.913 490.548L214.508 488.746C213.696 488.154 212.999 487.467 212.241 486.83C211.509 486.174 210.729 485.551 210.039 484.864L207.982 482.795C206.562 481.445 205.384 479.946 204.11 478.507C199.186 472.642 195.258 466.264 191.811 459.761C188.307 453.264 185.628 446.507 183.033 439.753C180.626 432.948 178.432 426.095 176.628 419.174C175.737 415.712 174.779 412.261 174.051 408.774C173.302 405.291 172.404 401.83 171.859 398.318C170.653 391.309 170.087 384.205 170.75 376.999C170.788 376.591 171.18 376.289 171.626 376.323C171.937 376.347 172.192 376.529 172.305 376.774L172.315 376.795C173.848 380.144 175.008 383.523 176.009 386.92C176.994 390.32 178.015 393.697 178.789 397.117C179.529 400.544 180.396 403.937 181.212 407.342C181.987 410.758 182.986 414.116 183.918 417.49C185.803 424.232 188.058 430.862 190.503 437.412C193.125 443.888 195.819 450.354 199.245 456.44C202.6 462.548 206.427 468.41 210.925 473.69C212.086 474.975 213.164 476.34 214.434 477.516L216.275 479.342C216.89 479.948 217.575 480.475 218.22 481.047C218.885 481.594 219.502 482.204 220.205 482.701L222.282 484.231C223.658 485.256 225.064 486.048 226.532 486.84C229.497 488.321 232.692 489.378 235.994 489.929C239.299 490.429 242.7 490.524 246.022 490.016C252.69 489.116 258.962 486.087 263.674 481.729C266.021 479.538 267.992 477.013 269.481 474.26C270.187 472.866 270.859 471.451 271.323 469.964C271.843 468.496 272.176 466.994 272.444 465.338C273.64 458.878 273.652 452.11 273.007 445.362C272.354 438.604 271.04 431.839 269.339 425.134C267.649 418.423 265.536 411.767 263.184 405.174C258.471 391.982 252.711 379.047 246.343 366.362C244.753 363.189 243.12 360.033 241.451 356.892C239.79 353.747 238.041 350.642 236.421 347.476C233.15 341.158 230.068 334.737 227.636 327.948L227.629 327.926C227.399 327.284 227.782 326.594 228.484 326.385C228.998 326.231 229.541 326.379 229.885 326.72Z" fill="#000072"/>
<path d="M184.871 436.689C183.878 436.689 182.887 436.326 182.16 435.607C180.779 434.24 180.871 432.111 182.366 430.849C183.734 429.693 216.452 402.509 266.544 399.088C268.569 398.939 270.345 400.341 270.497 402.196C270.649 404.052 269.125 405.669 267.093 405.807C219.659 409.046 187.689 435.531 187.372 435.797C186.663 436.394 185.765 436.689 184.871 436.689Z" fill="#000072"/>
<path d="M318.255 467.998C323.512 491.575 353.474 502.362 374.531 487.911C391.013 476.609 409.111 450.758 420.294 394.072C421.358 388.639 422.369 382.915 423.305 376.899L416.187 370.738L368.998 329.863C368.998 329.863 322.512 395.597 317.362 445.987V445.996C316.553 453.8 316.745 461.235 318.255 467.998Z" fill="#B11313"/>
<g opacity="0.300003">
<g opacity="0.300003">
<path opacity="0.300003" d="M318.254 467.998C323.51 491.575 353.472 502.362 374.529 487.911C391.011 476.609 409.109 450.758 420.292 394.072C436.029 385.413 441.434 363.148 441.434 363.148C448.223 333.585 440.391 306.335 440.391 306.335C441.882 342.319 426.245 359.484 419.795 364.994C417.998 366.529 416.742 368.51 416.195 370.701C416.191 370.713 416.188 370.726 416.185 370.738C404.662 417.308 385.361 474.043 357.356 478.105C330.319 482.022 318.668 449.854 317.36 445.996C316.551 453.8 316.743 461.235 318.254 467.998Z" fill="#000072"/>
</g>
</g>
<path d="M367.202 327.948C364.771 334.737 361.689 341.158 358.418 347.476C356.797 350.642 355.049 353.747 353.388 356.892C351.719 360.033 350.085 363.189 348.496 366.362C342.128 379.047 336.368 391.982 331.654 405.174C329.303 411.767 327.19 418.423 325.5 425.134C323.799 431.839 322.485 438.604 321.831 445.362C321.187 452.11 321.199 458.878 322.395 465.338C322.663 466.994 322.995 468.496 323.516 469.965C323.979 471.451 324.652 472.866 325.357 474.26C326.847 477.013 328.817 479.537 331.165 481.729C335.876 486.087 342.149 489.116 348.816 490.016C352.139 490.524 355.54 490.429 358.845 489.929C362.147 489.378 365.341 488.321 368.306 486.84C369.775 486.048 371.181 485.255 372.557 484.231L374.634 482.701C375.337 482.204 375.953 481.594 376.619 481.047C377.264 480.475 377.949 479.948 378.564 479.342L380.404 477.516C381.675 476.34 382.752 474.975 383.914 473.69C388.412 468.41 392.239 462.548 395.594 456.439C399.02 450.354 401.714 443.888 404.336 437.412C406.78 430.862 409.036 424.232 410.921 417.49C411.853 414.116 412.852 410.759 413.627 407.342C414.443 403.937 415.31 400.544 416.05 397.117C416.824 393.697 417.845 390.32 418.83 386.92C419.831 383.523 420.991 380.144 422.524 376.795L422.534 376.775C422.706 376.398 423.181 376.22 423.594 376.378C423.882 376.488 424.063 376.733 424.089 376.999C424.752 384.204 424.186 391.309 422.979 398.318C422.435 401.83 421.537 405.29 420.788 408.774C420.06 412.261 419.102 415.712 418.211 419.174C416.407 426.095 414.213 432.948 411.806 439.753C409.211 446.507 406.532 453.264 403.028 459.761C399.58 466.264 395.653 472.642 390.729 478.507C389.455 479.946 388.277 481.445 386.857 482.795L384.8 484.864C384.11 485.551 383.33 486.174 382.598 486.83C381.839 487.467 381.142 488.154 380.33 488.746L377.926 490.547C376.323 491.755 374.465 492.851 372.62 493.847C368.848 495.776 364.722 497.177 360.45 497.919C356.175 498.611 351.768 498.745 347.479 498.132C338.877 497.018 330.775 493.226 324.643 487.602C321.608 484.763 319.064 481.479 317.154 477.919C316.239 476.124 315.394 474.293 314.798 472.395C314.141 470.511 313.714 468.553 313.422 466.73C312.073 459.302 312.117 451.882 312.825 444.631C314.297 430.105 318.334 416.153 323.347 402.651C328.356 389.132 334.386 376.012 341.008 363.182C342.662 359.972 344.359 356.784 346.091 353.611C347.824 350.44 349.568 347.273 351.48 344.186C355.332 338.027 359.58 332.065 364.953 326.72C365.453 326.222 366.299 326.19 366.843 326.645C367.242 326.98 367.368 327.484 367.211 327.925L367.202 327.948Z" fill="#000072"/>
<path d="M409.969 436.691C409.074 436.691 408.177 436.396 407.468 435.797C407.15 435.531 375.18 409.047 327.746 405.807C325.714 405.669 324.191 404.052 324.342 402.196C324.494 400.341 326.267 398.94 328.295 399.088C378.388 402.508 411.105 429.693 412.474 430.849C413.969 432.112 414.061 434.244 412.678 435.61C411.951 436.328 410.962 436.691 409.969 436.691Z" fill="#000072"/>
<path d="M297.473 297.32C393.94 297.32 432.243 258.829 432.243 258.829C432.243 258.829 433.851 262.144 434.633 266.854C435.928 274.653 432.302 282.477 425.397 287.215C410.218 297.63 371.568 317.477 297.423 317.477C223.278 317.477 184.628 297.63 169.449 287.215C162.544 282.477 158.917 274.653 160.213 266.854C160.995 262.144 162.602 258.829 162.602 258.829C162.602 258.829 200.905 297.32 297.373 297.32" fill="#751313"/>
<g opacity="0.300003">
<g opacity="0.300003">
<path opacity="0.300003" d="M434.284 265.049C433.043 269.94 429.935 274.385 425.401 277.497C410.222 287.912 371.571 307.758 297.427 307.758C223.282 307.758 184.631 287.912 169.453 277.497C164.918 274.385 161.81 269.94 160.569 265.049C160.441 265.623 160.321 266.225 160.217 266.854C158.921 274.653 162.547 282.477 169.453 287.215C184.631 297.63 223.282 317.477 297.427 317.477C371.571 317.477 410.222 297.63 425.401 287.215C432.306 282.477 435.932 274.653 434.637 266.854C434.532 266.225 434.412 265.623 434.284 265.049Z" fill="#000072"/>
</g>
</g>
<path d="M297.418 320.846C223.373 320.846 184.068 301.462 167.229 289.909C159.156 284.368 155.068 275.341 156.562 266.349C157.408 261.25 159.151 257.617 159.225 257.465C159.73 256.423 160.777 255.685 162.008 255.504C163.238 255.319 164.488 255.72 165.327 256.563C165.697 256.932 203.935 293.951 297.369 293.951V300.689C217.568 300.689 177.088 274.978 164.352 264.966C164.169 265.704 163.997 266.507 163.855 267.359C162.769 273.896 165.76 280.473 171.66 284.522C187.763 295.571 225.515 314.107 297.418 314.107C369.322 314.107 407.074 295.571 423.177 284.522C429.077 280.473 432.067 273.897 430.982 267.359C430.84 266.507 430.668 265.704 430.484 264.966C417.748 274.978 377.269 300.689 297.468 300.689V293.951C391.219 293.951 429.137 256.937 429.51 256.563C430.349 255.72 431.598 255.321 432.828 255.504C434.059 255.685 435.106 256.423 435.612 257.465C435.686 257.617 437.429 261.25 438.275 266.349C439.769 275.341 435.681 284.369 427.608 289.909C410.769 301.462 371.464 320.846 297.418 320.846Z" fill="#000072"/>
<g opacity="0.3">
<path d="M5.81344 43.1502C5.81344 43.1502 7.88124 51.2677 1.02539 60.3308C1.02539 60.3308 12.226 60.0184 17.6127 66.7344C17.6127 66.7344 15.8171 56.9727 23.5122 49.554C23.5122 49.554 12.9955 51.272 5.81344 43.1502Z" fill="white"/>
</g>
<path d="M162.68 287.314L222.159 410.982" stroke="#000072" stroke-width="3" stroke-miterlimit="10"/>
<path d="M370.098 410.982L430.839 287.315" stroke="#000072" stroke-width="3" stroke-miterlimit="10"/>
<path fill-rule="evenodd" clip-rule="evenodd" d="M293.05 337.817C293.025 338.114 292.828 338.381 292.696 338.674C292.568 338.958 292.451 339.262 292.341 339.56C292.054 340.336 291.785 341.101 291.809 342.106C292.79 342.224 294.027 342.136 294.912 342.023C295.395 342.219 295.706 342.523 296.152 342.742C296.068 342.367 296.471 342.296 296.817 342.189C296.664 342.351 296.425 342.461 296.507 342.77C296.709 342.854 296.741 342.631 296.906 342.604C297.134 342.766 297.423 342.757 297.659 342.604C297.829 342.627 297.783 342.785 297.97 342.798C298.233 342.583 297.857 342.349 297.748 342.189C298.077 342.297 298.451 342.377 298.413 342.715C298.771 342.578 299.207 342.251 299.565 342.023C300.488 342.144 301.668 342.201 302.756 342.134C302.719 340.45 302.065 339.152 301.426 337.844C301.603 337.83 301.602 337.976 301.648 338.038C302.307 338.928 302.894 339.946 303.376 341.027C303.446 341.183 303.564 341.397 303.642 341.608C303.71 341.792 303.854 342.113 303.819 342.217C303.743 342.444 303.143 342.52 303.022 342.715C302.653 342.443 301.59 342.521 300.584 342.493C300.299 342.485 299.917 342.434 299.742 342.466C299.356 342.535 299.187 342.887 298.989 343.074C299.535 343.098 299.966 342.767 300.451 342.742C300.759 342.726 301.209 342.871 301.603 342.936C302.746 343.125 304.021 343.285 305.06 343.489C305.123 341.264 304.208 339.41 302.978 337.9C304.2 338.953 305.023 340.186 305.637 341.635C305.743 341.886 305.833 342.125 305.903 342.383C306 342.745 306.003 343.193 306.301 343.462C305.934 343.712 305.492 343.915 305.105 344.154C304.016 343.748 301.912 343.163 300.141 343.268C299.717 343.293 299.342 343.425 299.033 343.6C299.574 343.735 299.949 343.748 300.673 343.739C300.853 343.736 301.113 343.689 301.249 343.711C301.403 343.735 301.65 343.934 301.869 344.071C303.149 344.87 304.294 345.455 305.814 346.091C306.288 346.289 306.556 346.491 307.099 346.229C307.189 348.856 306.072 350.794 304.706 352.566C304.547 352.772 304.445 353.013 304.174 353.175C305.201 351.661 305.991 349.86 305.991 347.751C305.991 347.53 306.059 347.254 305.991 347.059C305.895 346.783 305.198 346.489 304.794 346.257C303.649 345.597 302.738 345.133 301.471 344.513C301.222 344.392 301.011 344.228 300.806 344.181C300.59 344.132 300.249 344.122 300.008 344.098C299.706 344.068 299.416 344.06 299.166 344.043C299.656 344.372 300.433 344.779 301.116 345.094C301.24 345.164 301.371 345.07 301.515 345.067C301.677 348.152 301.31 351.173 299.92 353.424C299.587 353.961 299.22 354.489 298.634 354.891C300.524 352.76 300.666 349.103 300.274 345.897C300.675 345.68 300.501 345.499 300.141 345.233C299.747 344.942 299.048 344.517 298.59 344.375C298.557 344.519 298.637 344.66 298.723 344.79C298.809 344.92 299.001 345.033 299.033 345.15C299.1 345.398 298.939 345.941 298.856 346.229C298.582 347.184 298.004 348.232 297.482 348.941C297.298 348.927 297.427 348.717 297.305 348.664C297.108 348.671 297.227 348.874 297.127 348.941C296.517 348.291 295.996 347.215 295.709 346.229C295.607 345.877 295.447 345.453 295.532 345.15C295.599 344.909 296.014 344.691 295.975 344.403C295.57 344.461 295.191 344.713 294.867 344.928C294.544 345.143 294.209 345.375 293.981 345.62C294.008 345.742 294.197 345.762 294.247 345.869C293.956 349.113 293.966 352.764 295.931 354.863C295.724 354.845 295.627 354.681 295.532 354.586C293.702 352.759 293.211 349.942 293.006 347.032C292.961 346.389 292.914 345.759 293.05 345.122C293.088 344.989 293.316 345.186 293.449 345.094C294.148 344.766 294.779 344.393 295.443 344.043C294.865 344.099 294.235 344.081 293.715 344.209C293.263 344.32 292.769 344.628 292.341 344.846C291.04 345.507 289.67 346.226 288.574 346.976C288.35 349.446 289.256 351.435 290.347 353.175C288.773 351.26 287.314 349.13 287.466 346.229C288.066 346.584 288.978 346.006 289.46 345.786C290.802 345.173 292.235 344.383 293.272 343.711C294.022 343.78 294.904 343.724 295.532 343.628C294.749 343.004 292.742 343.317 291.543 343.545C290.739 343.698 289.989 343.917 289.505 344.154C289.045 343.961 288.693 343.701 288.264 343.489C288.578 342.997 288.645 342.17 288.884 341.608C289.47 340.234 290.384 339.018 291.499 337.9C291.469 338.112 291.234 338.295 291.1 338.481C290.129 339.83 289.49 341.501 289.46 343.462C290.485 343.317 291.707 343.138 292.917 342.936C293.312 342.87 293.72 342.735 294.025 342.742C294.518 342.753 294.981 343.071 295.532 343.074C295.401 342.815 295.151 342.63 294.867 342.466C293.954 342.531 292.935 342.429 292.12 342.521C292.036 342.53 291.927 342.561 291.809 342.604C291.82 342.6 291.546 342.714 291.588 342.715C291.403 342.714 290.953 342.314 290.746 342.272C291.172 340.573 292.133 339.209 293.05 337.817Z" fill="#000072"/>
<path fill-rule="evenodd" clip-rule="evenodd" d="M297.424 320.847V368.629V320.847Z" fill="#000072"/>
<path d="M297.424 320.847V368.629" stroke="#000072" stroke-width="3" stroke-miterlimit="10"/>
<path d="M281.098 320.521C281.098 320.521 283.973 359.663 279.762 366.594" stroke="#000072" stroke-width="3" stroke-miterlimit="10"/>
<path d="M268.173 319.77C268.173 319.77 274.658 337.881 265.287 362.344" stroke="#000072" stroke-width="3" stroke-miterlimit="10"/>
<path d="M312.333 320.847C312.333 320.847 309.326 355.529 313.675 367.338" stroke="#000072" stroke-width="3" stroke-miterlimit="10"/>
<path d="M327.67 319.77C327.67 319.77 320.796 354.162 331.005 362.344" stroke="#000072" stroke-width="3" stroke-miterlimit="10"/>
<path d="M254.734 326.645C254.734 326.645 261.21 321 269.714 326.645C269.714 326.645 274.147 321.043 281.518 327.416C281.518 327.416 285.538 320.438 297.371 326.645C297.371 326.645 302.365 320.813 311.325 326.645C311.325 326.645 318.364 320.17 326.609 326.323C326.609 326.323 333.961 319.015 340.325 325.543" stroke="#000072" stroke-width="3" stroke-miterlimit="10"/>
<path d="M296.482 335.614C296.251 335.464 296.021 335.322 295.793 335.188C287.733 330.471 281.885 335.744 281.885 335.744C275.907 330.076 270.362 335.744 270.362 335.744C261.069 325.841 256.051 335.744 256.051 335.744" stroke="#000072" stroke-width="3" stroke-miterlimit="10"/>
<path d="M296.25 335.72C296.25 335.72 303.597 330.339 311.325 335.72C311.325 335.72 318.835 329.061 325.408 336.018C325.408 336.018 335.167 329.158 338.807 335.879" stroke="#000072" stroke-width="3" stroke-miterlimit="10"/>
<path d="M256.051 352.282C256.051 352.282 262.014 343.31 268.289 353.043C268.289 353.043 279.544 345.942 281.939 355.859C281.939 355.859 291.258 351.532 297.771 358.654C297.771 358.654 304.672 351.282 312.665 356.905C312.665 356.905 318.002 345.63 327.036 354.329C327.036 354.329 332.602 344.927 338.807 350.291" stroke="#000072" stroke-width="3" stroke-miterlimit="10"/>
<path d="M255.441 357.646C255.441 357.646 263.207 350.453 266.602 358.654C266.602 358.654 277.787 354.035 280.91 362.342C280.91 362.342 292.468 356.805 297.279 365.664C297.279 365.664 304.118 359.779 312.338 363.777C312.338 363.777 319.894 353.397 328.64 359.524C328.64 359.524 334.862 349.816 338.586 355.859" stroke="#000072" stroke-width="3" stroke-miterlimit="10"/>
<path d="M187.371 435.797C187.371 435.797 221.788 402.753 265.29 405.943L275.179 433.685C275.179 433.685 264.49 474.875 197.104 460.996L187.371 435.797Z" fill="#000072"/>
<path d="M187.371 435.797C187.371 435.797 221.788 402.753 265.29 405.943L275.179 433.685C275.179 433.685 264.49 474.875 197.104 460.996L187.371 435.797Z" stroke="#000072" stroke-width="3" stroke-miterlimit="10"/>
<path d="M318.074 440.503L328.208 401.146L375.964 414.407L404.419 429.163V440.503L397.737 460.996C397.737 460.996 349.927 475.371 318.074 440.503Z" fill="#000072"/>
<path d="M318.074 440.503L328.208 401.146L375.964 414.407L404.419 429.163V440.503L397.737 460.996C397.737 460.996 349.927 475.371 318.074 440.503Z" stroke="#000072" stroke-width="3" stroke-miterlimit="10"/>
<path d="M76.3965 388.086L113.161 475.152" stroke="#000072" stroke-width="3" stroke-miterlimit="10"/>
<path d="M66.8594 399.078C66.8594 399.078 73.2119 439.381 100.943 474.498" stroke="#000072" stroke-width="3" stroke-miterlimit="10"/>
<path d="M91.3242 384.737C91.3242 384.737 120.039 429.263 124.476 475.857" stroke="#000072" stroke-width="3" stroke-miterlimit="10"/>
<path d="M109.748 388.086C109.748 388.086 127.164 419.795 136.982 475.152" stroke="#000072" stroke-width="3" stroke-miterlimit="10"/>
<path d="M62.957 417.885C62.957 417.885 63.0296 408.967 69.9701 412.425C69.9701 412.425 72.5527 396.83 83.8974 406.731C83.8974 406.731 84.327 390.899 100.181 400.392C100.181 400.392 104.703 388.773 114.2 399.079C114.2 399.079 118.91 396.701 121.941 402.062" stroke="#000072" stroke-width="3" stroke-miterlimit="10"/>
<path d="M67.959 404.527C67.959 404.527 70.393 392.994 80.0826 396.816C80.0826 396.816 82.001 387.335 94.7787 390.488C94.7787 390.488 96.6588 384.288 111.821 392.213" stroke="#000072" stroke-width="3" stroke-miterlimit="10"/>
<path d="M64.3086 422.629C64.3086 422.629 64.8436 413.692 72.2455 419.91C72.2455 419.91 74.5776 404.438 87.5094 414.408C87.5094 414.408 87.8556 399.258 102.904 407.82C102.904 407.82 108.44 399.36 118.09 406.731C118.09 406.731 119.813 402.327 124.628 406.731" stroke="#000072" stroke-width="3" stroke-miterlimit="10"/>
<path d="M64.3086 430.297C64.3086 430.297 67.3127 421.704 75.5322 429.164C75.5322 429.164 80.562 415.132 91.3226 424.628C91.3226 424.628 95.6576 405.898 108.857 418.762C108.857 418.762 110.91 406.533 121.408 415.58C121.408 415.58 122.204 408.071 127.739 414.101" stroke="#000072" stroke-width="3" stroke-miterlimit="10"/>
<path d="M66.8594 436.787C66.8594 436.787 69.6545 429.709 77.7989 434.79C77.7989 434.79 86.6538 423.618 94.7801 431.619C94.7801 431.619 103.501 419.593 111.822 428.733C111.822 428.733 116.15 417.449 124.708 425.304C124.708 425.304 127.879 421.098 130.441 424.737" stroke="#000072" stroke-width="3" stroke-miterlimit="10"/>
<path d="M69.8027 445.119C69.8027 445.119 74.7255 437.408 81.0193 442.014C81.0193 442.014 86.5343 433.226 98.5519 440.547C98.5519 440.547 104.271 428.65 116.039 437.634C116.039 437.634 120.294 427.511 127.744 436.69C127.744 436.69 127.772 426.866 132.988 431.62" stroke="#000072" stroke-width="3" stroke-miterlimit="10"/>
<path d="M73.4199 454.84V452.366C73.4199 452.366 76.7177 443.346 84.614 449.231C84.614 449.231 92.7671 440.696 101.394 447.281C101.394 447.281 110.309 436.623 118.373 445.119C118.373 445.119 123.229 435.804 130.442 445.085" stroke="#000072" stroke-width="3" stroke-miterlimit="10"/>
<path d="M79.5645 457.865C79.5645 457.865 79.87 453.066 87.6927 454.84C87.6927 454.84 96.0777 449.038 104.415 454.447C104.415 454.447 110.297 444.918 120.28 452.141C120.28 452.141 127.192 444.715 131.922 451.004" stroke="#000072" stroke-width="3" stroke-miterlimit="10"/>
<path d="M83.9023 463.854C83.9023 463.854 86.9243 459.655 92.4538 462.633C92.4538 462.633 99.6331 456.271 107.427 461.566C107.427 461.566 112.848 454.061 121.969 459.461C121.969 459.461 127.752 452.618 133.524 457.865" stroke="#000072" stroke-width="3" stroke-miterlimit="10"/>
<path d="M89.8945 468.109C89.8945 468.109 90.843 463.665 96.0298 467.914C96.0298 467.914 102.089 464.361 109.75 468.109C109.75 468.109 118.105 463.326 123.367 467.092C123.367 467.092 130.208 462.398 134.753 466.878" stroke="#000072" stroke-width="3" stroke-miterlimit="10"/>
<path d="M98.6504 471.215C98.6504 471.215 102.68 467.351 111.822 471.979C111.822 471.979 116.84 469.181 121.436 470.167C122.093 470.308 122.741 470.527 123.364 470.841" stroke="#000072" stroke-width="3" stroke-miterlimit="10"/>
<path d="M124.051 472.006C124.051 472.006 128.699 468.303 136.596 470.853" stroke="#000072" stroke-width="3" stroke-miterlimit="10"/>
<path d="M132.989 430.32C131.602 433.199 136.984 478.506 136.984 478.506H204.116L202.687 475.152L187.375 448.474L177.791 423.414C156.072 420.602 134.754 374.147 134.754 374.147L119.637 388.83L123.367 396.815L130.445 411.756L132.989 430.32Z" fill="#000072"/>
<path d="M515.676 385.978L482.814 475.152" stroke="#000072" stroke-width="3" stroke-miterlimit="10"/>
<path d="M524.404 396.865C524.404 396.865 518.563 453.769 491.137 476.52" stroke="#000072" stroke-width="3" stroke-miterlimit="10"/>
<path d="M503.019 385.436C503.019 385.436 480.764 434.258 470.195 475.695" stroke="#000072" stroke-width="3" stroke-miterlimit="10"/>
<path d="M484.521 389.717C484.521 389.717 468.323 417.46 459.92 480.855" stroke="#000072" stroke-width="3" stroke-miterlimit="10"/>
<path d="M529.87 411.898C529.87 411.898 528.099 404.01 522.482 409.321C522.482 409.321 520.137 395.22 509.062 403.926C509.062 403.926 505.936 391.908 496.216 401.146C496.216 401.146 488.65 389.659 479.228 401.146C479.228 401.146 477.281 398.237 472.723 402.061" stroke="#000072" stroke-width="3" stroke-miterlimit="10"/>
<path d="M530.438 419.881C530.438 419.881 528.358 412.141 520.697 417.884C520.697 417.884 516.244 408.185 505.201 414.407C505.201 414.407 502.611 404.584 491.134 410.982C491.134 410.982 487.743 403.504 476.313 408.818C476.313 408.818 473.638 404.088 468.85 409.235" stroke="#000072" stroke-width="3" stroke-miterlimit="10"/>
<path d="M530.441 429.164C530.441 429.164 526.066 420.829 518.593 426.228C518.593 426.228 511.608 417.19 501.513 424.408C501.513 424.408 497.696 415.597 487.991 421.613C487.991 421.613 483.025 411.898 472.721 418.763C472.721 418.763 470.833 413.642 463.342 417.886" stroke="#000072" stroke-width="3" stroke-miterlimit="10"/>
<path d="M528.633 436.691C528.633 436.691 526.054 428.451 515.852 435.285C515.852 435.285 508.9 424.707 498.52 432.539C498.52 432.539 494.032 421.76 484.519 430.566C484.519 430.566 481.519 421.797 470.192 428.46C470.192 428.46 468.534 421.598 463.699 427.486C458.864 433.374 462.421 427.376 462.421 427.376" stroke="#000072" stroke-width="3" stroke-miterlimit="10"/>
<path d="M525.894 444.869C525.894 444.869 522.203 435.668 513.104 442.892C513.104 442.892 507.411 435.38 495.722 440.125C495.722 440.125 488.656 432.374 480.462 440.121C480.462 440.121 474.883 432.243 467.556 438.806C467.556 438.806 464.702 425.877 457.814 438.372" stroke="#000072" stroke-width="3" stroke-miterlimit="10"/>
<path d="M520.311 451.25C520.311 451.25 520.086 442.846 510.27 449.606C510.27 449.606 503.801 441.36 492.415 449.113C492.415 449.113 486.258 440.628 477.932 449.594C477.932 449.594 472.259 441.372 465.223 449.332C465.223 449.332 465.001 435.624 455.504 446.37" stroke="#000072" stroke-width="3" stroke-miterlimit="10"/>
<path d="M515.679 458.363C515.679 458.363 514.218 453.778 506.377 457.32C506.377 457.32 497.861 451.479 489.443 457.17C489.443 457.17 484.585 450.93 475.692 456.521C475.692 456.521 468.374 450.695 463.346 456.279C463.346 456.279 463.79 445.855 453.119 453.859" stroke="#000072" stroke-width="3" stroke-miterlimit="10"/>
<path d="M510.029 463.933C510.029 463.933 508.826 458.756 502.314 463.933C502.314 463.933 494.918 459.393 486.605 464.877C486.605 464.877 478.422 460.143 473.158 464.877C473.158 464.877 467.518 457.894 461.55 464.877C461.55 464.877 459.724 455.649 453.959 463.255" stroke="#000072" stroke-width="3" stroke-miterlimit="10"/>
<path d="M505.053 466.596C505.053 466.596 502.353 464.339 499.644 467.607C499.644 467.607 488.834 464.705 484.519 470.531C484.519 470.531 479.875 465.909 471.558 470.531C471.558 470.531 467.494 463.706 461.401 470.531C461.401 470.531 458.043 461.457 451.75 470.531" stroke="#000072" stroke-width="3" stroke-miterlimit="10"/>
<path d="M419.27 422.683L440.846 403.691L457.817 377.4L459.918 371.564L474.162 385.979L475.28 393.141L467.558 401.146L463.345 410.983L461.548 422.683V428.967L461.402 433.16C461.402 433.16 454.034 464.882 457.817 477.367L392.104 478.855L389.961 475.153L400.694 456.112L412.475 430.849L419.27 422.683Z" fill="#000072"/>
<path d="M407.214 299.534C407.214 299.534 354.624 392.74 348.719 418.762" stroke="#000072" stroke-width="3" stroke-miterlimit="10"/>
<path d="M390.434 306.691C390.434 306.691 339.027 400.672 343.574 408.623" stroke="#000072" stroke-width="3" stroke-miterlimit="10"/>
<path d="M439.515 301.557C439.515 301.557 400.432 398.785 382.254 421.504" stroke="#000072" stroke-width="3" stroke-miterlimit="10"/>
<path d="M368.994 320.846C368.994 320.846 380.887 309.35 383.827 318.946C383.827 318.946 391.813 308.207 398.319 315.563C398.319 315.563 413.815 304.167 416.296 316.917C416.296 316.917 430.385 306.778 431.558 320.846C431.558 320.846 436.674 319.524 436.55 331.342C436.55 331.342 441.145 340.525 439.812 344.092" stroke="#000072" stroke-width="3" stroke-miterlimit="10"/>
<path d="M388.586 310.087C388.586 310.087 397.899 302.405 403.214 306.692C403.214 306.692 415.745 295.092 422.278 304.742C422.278 304.742 434.669 302.743 434.889 312.858C434.889 312.858 439.906 318.607 439.515 320.847C439.515 320.847 433.772 356.092 422.787 377.036C422.787 377.036 408.223 422.675 393.392 426.328" stroke="#000072" stroke-width="3" stroke-miterlimit="10"/>
<path d="M367.213 327.924C367.213 327.924 374.659 319.435 379.074 327.924C379.074 327.924 389.992 318.311 390.434 327.924C390.434 327.924 407.668 320.313 409.943 329.862C409.943 329.862 422.668 321.578 425.24 335.743C425.24 335.743 437.473 331.563 433.593 345.976C433.593 345.976 440.38 344.354 439.1 353.418" stroke="#000072" stroke-width="3" stroke-miterlimit="10"/>
<path d="M360.506 338.536C360.506 338.536 371.325 329.305 372.687 340.169C372.687 340.169 383.164 330.852 383.737 342.63C383.737 342.63 402.455 333.852 402.028 345.978C402.028 345.978 415.104 342.172 417.451 353.583C417.451 353.583 428.745 350.143 429.921 359.772C429.921 359.772 438.252 359.298 437.471 365.445" stroke="#000072" stroke-width="3" stroke-miterlimit="10"/>
<path d="M354.758 350.292C354.758 350.292 363.095 337.579 368.162 350.217C368.162 350.217 374.905 344.661 377.966 352.532C377.966 352.532 394.365 347.535 395.801 358.655C395.801 358.655 406.898 352.287 412.43 362.343C412.43 362.343 425.3 360.402 427.171 367.338C427.171 367.338 433.041 365.669 435.146 371.564" stroke="#000072" stroke-width="3" stroke-miterlimit="10"/>
<path d="M351.473 357.658C351.473 357.658 359.187 353.974 361.487 362.343C361.487 362.343 369.476 355.959 372.685 363.617C372.685 363.617 385.766 359.048 389.961 368.629C389.961 368.629 404.132 363.72 408.739 372.757C408.739 372.757 418.35 370.424 423.593 376.378C423.593 376.378 429.968 374.192 430.838 380.137" stroke="#000072" stroke-width="3" stroke-miterlimit="10"/>
<path d="M345.945 367.488C345.945 367.488 356.64 360.23 356.622 372.406C356.622 372.406 365.913 366.401 367.21 373.898C367.21 373.898 381.673 370.068 385.247 380.136C385.247 380.136 397.29 372.121 403.233 384.354C403.233 384.354 415.623 378.296 418.433 388.279" stroke="#000072" stroke-width="3" stroke-miterlimit="10"/>
<path d="M342 379.146C342 379.146 350.265 371.005 353.024 380.136C353.024 380.136 360.634 374.255 363.442 382.604C363.442 382.604 376.753 379.233 381.248 388.279C381.248 388.279 393.197 383.597 399.012 392.898C399.012 392.898 409.342 386.884 414.677 396.041" stroke="#000072" stroke-width="3" stroke-miterlimit="10"/>
<path d="M338.283 386.831C338.283 386.831 346.754 382.045 349.42 388.28C349.42 388.28 356.839 383.598 359.695 390.556C359.695 390.556 374.248 387.822 376.505 396.042C376.505 396.042 389.788 392.572 394.945 400.759C394.945 400.759 405.038 397.495 410.881 403.97C410.881 403.97 413.246 402.676 413.241 408.623" stroke="#000072" stroke-width="3" stroke-miterlimit="10"/>
<path d="M335.057 394.067C335.057 394.067 344.109 389.828 345.944 395.264C345.944 395.264 355.657 391.709 356.44 397.791C356.44 397.791 372.911 394.386 373.888 403.259C373.888 403.259 388.472 399.27 390.626 408.622C390.626 408.622 403.27 403.871 406.063 414.407C406.063 414.407 410.996 412.272 412.425 418.762" stroke="#000072" stroke-width="3" stroke-miterlimit="10"/>
<path d="M179.299 292.749C179.299 292.749 226.177 363.13 237.132 408.623" stroke="#000072" stroke-width="3" stroke-miterlimit="10"/>
<path d="M206.188 306.336C206.188 306.336 241.209 364.934 252.837 403.715" stroke="#000072" stroke-width="3" stroke-miterlimit="10"/>
<path d="M156.744 303.919C156.744 303.919 197.57 409.641 210.939 417.885" stroke="#000072" stroke-width="3" stroke-miterlimit="10"/>
<path d="M155.113 323.651C155.113 323.651 188.133 417.863 197.983 422.682" stroke="#000072" stroke-width="3" stroke-miterlimit="10"/>
<path d="M159.695 308.176C159.695 308.176 160.606 297.117 170.471 303.521C170.471 303.521 174.401 295.599 185.576 302.512C185.576 302.512 188.543 298.27 197.982 301.724" stroke="#000072" stroke-width="3" stroke-miterlimit="10"/>
<path d="M157.326 329.863C157.326 329.863 158.21 322.081 165.171 325.124C165.171 325.124 167.326 314.34 179.305 321.878C179.305 321.878 181.528 310.535 194.751 317.477C194.751 317.477 203.061 307.537 212.631 317.477C212.631 317.477 219.634 311.535 224.748 317.477" stroke="#000072" stroke-width="3" stroke-miterlimit="10"/>
<path d="M155.113 320.52C155.113 320.52 158.184 315.782 161.872 317.476C161.872 317.476 165.849 307.177 174.437 311.765C174.437 311.765 179.879 304.299 189.699 309.142C189.699 309.142 199.924 304.843 206.191 307.508" stroke="#000072" stroke-width="3" stroke-miterlimit="10"/>
<path d="M153.994 344.619C153.994 344.619 155.175 339.382 161.873 342.396C161.873 342.396 162.796 334.479 170.471 338.57C170.471 338.57 172.44 327.701 186.101 334.432C186.101 334.432 187.48 321.749 201.978 329.864C201.978 329.864 208.354 320.139 218.011 327.152C218.011 327.152 219.088 321.614 226.488 326.324" stroke="#000072" stroke-width="3" stroke-miterlimit="10"/>
<path d="M155.113 356.85C155.113 356.85 158.169 348.184 165.969 353.419C165.969 353.419 167.582 344.178 175.6 350.292C175.6 350.292 181.541 341.796 190.24 345.977C190.24 345.977 198.068 334.453 208.217 341.056C208.217 341.056 215.586 332.18 223.543 337.421C223.543 337.421 223.826 334.035 231.356 335.744" stroke="#000072" stroke-width="3" stroke-miterlimit="10"/>
<path d="M157.373 365.445C157.373 365.445 159.473 356.535 169.357 362.343C169.357 362.343 173.948 356.249 179.928 360.353C179.928 360.353 185.072 350.046 195.701 355.975C195.701 355.975 202.835 346.589 214.295 352.497C214.295 352.497 219.532 344.66 229.62 349.15C229.62 349.15 228.764 344.544 236.425 347.476" stroke="#000072" stroke-width="3" stroke-miterlimit="10"/>
<path d="M161.254 374.148C161.254 374.148 163.555 366.329 171.534 370.254C171.534 370.254 176.288 362.071 183.509 368.24C183.509 368.24 186.692 357.838 200.202 364.949C200.202 364.949 206.649 355.869 218.526 360.31C218.526 360.31 223.241 351.723 233.873 356.976C233.873 356.976 236.083 352.714 241.451 356.121" stroke="#000072" stroke-width="3" stroke-miterlimit="10"/>
<path d="M161.873 381.91C161.873 381.91 165.111 371.899 173.955 374.148C173.955 374.148 181.901 370.241 185.907 373.818C185.907 373.818 197.331 365.98 203.198 371.563C203.198 371.563 215.003 363.041 222.157 368.47C222.157 368.47 230.218 362.286 238.109 366.593C238.109 366.593 242.433 362.238 247.774 365.444" stroke="#000072" stroke-width="3" stroke-miterlimit="10"/>
<path d="M252.842 377.399C252.842 377.399 244.62 367.478 242.712 376.81C242.712 376.81 228.676 369.13 227.352 380.135C227.352 380.135 213.565 370.68 208.716 383.034C208.716 383.034 194.618 375.956 191.034 385.922C191.034 385.922 182.043 377.334 180.654 388.28C180.654 388.28 175.959 386.642 175.139 390.891" stroke="#000072" stroke-width="3" stroke-miterlimit="10"/>
<path d="M256.551 385.923C256.551 385.923 248.949 378.257 246.926 386.949C246.926 386.949 235.752 380.236 231.026 389.312C231.026 389.312 218.975 383.751 214.292 394.069C214.292 394.069 201.401 387.506 197.981 398.82C197.981 398.82 189.128 395.547 186.099 403.715C186.099 403.715 181.547 402.614 179.299 408.623" stroke="#000072" stroke-width="3" stroke-miterlimit="10"/>
<path d="M258.318 392.495C258.318 392.495 252.582 383.027 249.902 394.815C249.902 394.815 242.782 390.771 234.446 399.078C234.446 399.078 223.783 395.744 217.929 402.189C217.929 402.189 209.484 400.068 203.356 405.726C203.019 406.037 202.69 406.371 202.369 406.73" stroke="#000072" stroke-width="3" stroke-miterlimit="10"/>
<path d="M202.688 406.37C202.688 406.37 194.812 405.717 190.72 412.423C190.72 412.423 185.037 412.645 182.413 418.761C179.789 424.877 181.182 417.885 181.182 417.885" stroke="#000072" stroke-width="3" stroke-miterlimit="10"/>
<path fill-rule="evenodd" clip-rule="evenodd" d="M296.718 44.0764C387.184 44.0764 456.777 130.075 456.777 201.885C456.777 273.696 329.22 302.714 296.718 304.129C264.216 305.545 130.027 271.59 130.027 199.779C130.027 127.968 206.252 44.0764 296.718 44.0764Z" fill="#FF850B"/>
<path d="M296.72 47.5679C206.502 47.5679 133.853 130.836 133.853 199.779C133.853 217.706 142.773 234.565 160.368 249.887C199.558 284.017 271.062 300.676 294.704 300.678C295.354 300.678 295.963 300.666 296.538 300.641C313.667 299.895 353.128 291.844 387.229 276.281C417.213 262.596 452.955 238.581 452.955 201.884C452.955 130.522 384.709 47.5679 296.72 47.5679ZM294.801 307.66C269.439 307.66 196.349 290.871 155.091 254.942C135.925 238.25 126.205 219.691 126.205 199.779C126.205 163.835 145.061 123.777 176.645 92.6255C210.177 59.5525 253.942 40.5838 296.72 40.5838C339.765 40.5838 381.263 59.4738 413.572 93.7742C443.021 125.038 460.603 165.453 460.603 201.884C460.603 233.756 436.412 261.642 390.646 282.528C355.551 298.545 314.7 306.842 296.902 307.617C296.245 307.646 295.542 307.66 294.801 307.66Z" fill="#000072"/>
<g opacity="0.5">
<g opacity="0.5">
<path opacity="0.5" fill-rule="evenodd" clip-rule="evenodd" d="M296.718 44.0769C352.318 44.0769 400.027 76.5664 428.547 118.276C428.844 119.624 429.13 120.978 429.38 122.342C403.342 87.481 362.743 64.4934 317.781 58.2924C320.664 59.2871 322.335 60.4685 322.335 61.7365C322.335 65.281 309.265 68.1541 293.143 68.1541C277.022 68.1541 263.952 65.281 263.952 61.7365C263.952 60.4685 265.62 59.2871 268.505 58.2924C223.541 64.4948 182.946 87.4837 156.908 122.342L157.052 121.607C187.076 78.231 238.996 44.0769 296.718 44.0769Z" fill="white"/>
</g>
</g>
<path fill-rule="evenodd" clip-rule="evenodd" d="M452.478 223.95C429.983 279.718 325.657 302.869 296.715 304.129C268.069 305.377 160.46 279.144 135.318 223.745C137.246 193.57 154.031 185.323 185.071 200.069C197.836 206.132 210.822 212.456 221.111 207.64C279.843 180.146 315.705 185.329 355.905 207.64C374.703 218.075 393.05 202.51 404.56 197.765C441.219 182.647 458.038 193.221 452.478 223.95Z" fill="white"/>
<g opacity="0.300003">
<g opacity="0.300003">
<path opacity="0.300003" fill-rule="evenodd" clip-rule="evenodd" d="M456.083 189.345C456.538 193.559 456.779 197.746 456.779 201.885C456.779 204.53 456.586 207.108 456.252 209.639L456.286 208.883C451.818 256.806 346.158 293.397 289.316 296.352C241.867 298.819 147.1 252.168 131.166 208.883C131.195 209.78 131.246 210.676 131.29 211.57C130.478 207.758 130.029 203.832 130.029 199.779C130.029 196.552 130.189 193.302 130.49 190.033L130.738 189.334C167.779 237.974 228.544 266.976 293.416 266.976C358.281 266.976 419.041 237.975 456.083 189.345Z" fill="#000072"/>
</g>
</g>
<path fill-rule="evenodd" clip-rule="evenodd" d="M238.189 166.397C233.13 164.337 227.952 160.885 222.661 156.047C213.487 156.427 206.148 165.377 206.148 176.36C206.148 187.586 213.812 196.688 223.265 196.688C232.72 196.688 240.383 187.586 240.383 176.36C240.383 172.74 239.586 169.342 238.189 166.397Z" fill="#000072"/>
<path d="M381.844 147.258C375.67 154.749 369.599 160.541 363.634 164.635C354.858 170.657 345.359 171.712 344.307 165.079C349.027 164.585 353.947 162.581 359.063 159.07C371.674 150.414 375.617 144.841 381.844 147.258Z" fill="#000072"/>
<path fill-rule="evenodd" clip-rule="evenodd" d="M353.066 166.397C358.124 164.337 363.303 160.885 368.596 156.047C377.769 156.427 385.106 165.377 385.106 176.36C385.106 187.586 377.444 196.688 367.989 196.688C358.535 196.688 350.871 187.586 350.871 176.36C350.871 172.74 351.668 169.342 353.066 166.397Z" fill="#000072"/>
<path fill-rule="evenodd" clip-rule="evenodd" d="M360.915 171.184C358.138 171.184 355.889 173.373 355.889 176.073C355.889 178.773 358.138 180.963 360.915 180.963C363.69 180.963 365.939 178.773 365.939 176.073C365.939 173.373 363.69 171.184 360.915 171.184Z" fill="white"/>
<path fill-rule="evenodd" clip-rule="evenodd" d="M293.403 179.928C305.645 179.928 315.568 185.97 315.568 193.423C315.568 200.877 305.645 206.92 293.403 206.92C281.161 206.92 271.238 200.877 271.238 193.423C271.238 185.97 281.161 179.928 293.403 179.928Z" fill="#000072"/>
<path d="M314.598 223.457C306.797 223.457 299.25 220.807 293.459 216.072C286.992 221.451 278.077 223.953 269.314 222.681C259.135 221.204 250.503 214.832 246.784 206.052C246.022 204.253 247.001 202.231 248.971 201.535C250.939 200.84 253.153 201.734 253.916 203.532C256.655 210.001 263.015 214.695 270.514 215.783C278.017 216.873 285.656 214.211 290.456 208.839C291.173 208.037 292.243 207.567 293.377 207.555C294.52 207.557 295.59 207.993 296.327 208.78C301.334 214.139 308.898 216.986 316.593 216.396C324.279 215.808 331.229 211.846 335.187 205.8C336.27 204.144 338.621 203.604 340.43 204.595C342.242 205.585 342.834 207.729 341.75 209.384C336.532 217.356 327.367 222.58 317.233 223.356C316.353 223.424 315.474 223.457 314.598 223.457Z" fill="#000072"/>
<path fill-rule="evenodd" clip-rule="evenodd" d="M293.42 211.049C301.391 217.969 309.221 220.912 316.914 219.879C318.817 265.487 268.193 263.629 269.916 219.234C279.347 220.328 287.179 217.601 293.42 211.049Z" fill="#000072"/>
<path d="M273.722 222.962C274.101 234.583 278.614 243.719 286.131 247.784C291.097 250.469 296.708 250.506 301.528 247.885C308.724 243.97 312.862 235.209 313.128 223.56C306.622 223.369 300.086 220.798 293.613 215.881C288.042 220.59 281.435 222.962 273.896 222.962C273.839 222.962 273.78 222.962 273.722 222.962ZM293.989 256.795C289.972 256.795 285.935 255.794 282.235 253.794C271.35 247.908 265.467 235.266 266.094 219.11L266.243 215.288L270.396 215.77C278.561 216.714 285.138 214.42 290.534 208.757L293.157 206.003L296.053 208.517C303.192 214.715 309.841 217.302 316.357 216.422L320.572 215.856L320.734 219.745C321.403 235.79 315.829 248.234 305.441 253.886C301.874 255.825 297.942 256.795 293.989 256.795Z" fill="#000072"/>
<path fill-rule="evenodd" clip-rule="evenodd" d="M293.841 236.27C287.034 236.27 280.64 239.246 276.643 244.274C285.846 256.244 302.164 256.44 310.956 244.172C306.953 239.206 300.599 236.27 293.841 236.27Z" fill="#FF0066"/>
<path d="M281.59 244.354C285.135 247.923 289.593 249.858 294.219 249.819C298.69 249.752 302.815 247.825 306.06 244.335C302.827 241.437 298.425 239.762 293.837 239.762C289.231 239.762 284.825 241.443 281.59 244.354ZM293.981 256.805C286.107 256.805 278.663 252.984 273.51 246.281L271.941 244.24L273.546 242.222C278.248 236.309 285.833 232.778 293.837 232.778C301.776 232.778 309.325 236.264 314.031 242.102L315.605 244.056L314.152 246.085C309.353 252.78 302.134 256.686 294.344 256.802C294.223 256.804 294.102 256.805 293.981 256.805Z" fill="#000072"/>
<path fill-rule="evenodd" clip-rule="evenodd" d="M438.16 128.812C413.605 91.7526 384.165 66.6618 349.838 53.5439C417.173 -32.6312 446.613 -7.54169 438.16 128.812Z" fill="#FF850B"/>
<path d="M355.707 52.0786C385.843 64.6406 412.445 86.6604 434.95 117.661C439.056 33.6432 426.579 11.2836 415.101 7.59671C406.341 4.78502 388.974 10.3763 355.707 52.0786ZM441.278 140.266L434.888 130.621C410.875 94.3791 381.762 69.5306 348.361 56.7659L343.941 55.077L346.724 51.5157C377.525 12.097 400.714 -4.43024 417.638 1.0083C439.226 7.94345 446.959 48.6169 441.976 129.011L441.278 140.266Z" fill="#000072"/>
<path fill-rule="evenodd" clip-rule="evenodd" d="M343.995 133.321C349.658 131.2 355.367 131.969 356.745 135.039C358.123 138.108 354.649 142.317 348.987 144.439C343.324 146.56 337.615 145.79 336.237 142.72C334.859 139.651 338.334 135.442 343.995 133.321Z" fill="white"/>
<path fill-rule="evenodd" clip-rule="evenodd" d="M245.327 133.115C239.664 130.993 233.955 131.763 232.577 134.832C231.199 137.902 234.672 142.111 240.335 144.231C245.997 146.352 251.706 145.583 253.084 142.514C254.462 139.445 250.989 135.236 245.327 133.115Z" fill="white"/>
<path fill-rule="evenodd" clip-rule="evenodd" d="M225.786 171.182C223.009 171.182 220.76 173.372 220.76 176.071C220.76 178.771 223.009 180.961 225.786 180.961C228.561 180.961 230.81 178.771 230.81 176.071C230.81 173.372 228.561 171.182 225.786 171.182Z" fill="white"/>
<path fill-rule="evenodd" clip-rule="evenodd" d="M151.229 130.578C175.783 93.5169 205.223 68.4275 239.549 55.3082C172.215 -30.8668 142.775 -5.77597 151.229 130.578Z" fill="#FF850B"/>
<path d="M178.374 8.75098C176.837 8.75098 175.481 8.9782 174.285 9.36264C162.808 13.0498 150.331 35.4088 154.437 119.427C176.941 88.427 203.542 66.4072 233.679 53.8438C204.955 17.8368 188.083 8.75098 178.374 8.75098ZM148.11 142.033L147.412 130.777C142.427 50.3829 150.16 9.70959 171.748 2.77385C188.661 -2.65808 211.858 13.8597 242.662 53.2809L245.444 56.8422L241.025 58.5311C207.622 71.2972 178.51 96.1462 154.5 132.388L148.11 142.033Z" fill="#000072"/>
<g opacity="0.649994">
<g opacity="0.649994">
<path opacity="0.649994" fill-rule="evenodd" clip-rule="evenodd" d="M231.121 58.8242C233.899 57.5696 236.713 56.3989 239.559 55.3095C197.827 1.90004 170.658 -8.74944 158.037 23.3181C171.478 0.768635 195.837 12.6024 231.116 58.8215L231.121 58.8242Z" fill="white"/>
</g>
</g>
<path fill-rule="evenodd" clip-rule="evenodd" d="M169.616 105.455C181.585 91.9341 195.15 80.2302 210.313 70.3469C176.324 9.89465 162.757 21.597 169.616 105.455Z" fill="#000072"/>
<path d="M178.364 35.855C178.196 35.855 178.082 35.8754 178.015 35.8925C177.606 35.9979 173.973 37.365 172.419 52.7613C171.372 63.135 171.495 77.8652 172.783 96.6265C182.665 86.4144 193.599 77.2498 205.405 69.2863C187.521 38.0653 180.102 35.855 178.364 35.855ZM166.522 114.504L165.804 105.715C160.585 41.9043 168 31.2128 175.943 29.1698C185.441 26.7208 196.742 38.5631 213.715 68.7514L215.225 71.4364L212.534 73.1894C197.73 82.8392 184.29 94.4337 172.589 107.651L166.522 114.504Z" fill="#000072"/>
<g opacity="0.300003">
<g opacity="0.300003">
<path opacity="0.300003" fill-rule="evenodd" clip-rule="evenodd" d="M174.028 34.3789C161.624 42.8509 153.613 65.7722 149.994 103.141C150.212 111.722 150.623 120.867 151.224 130.578C153.058 127.548 154.998 124.553 157.047 121.606L156.904 122.341C166.812 108.538 177.47 96.5716 188.874 86.4405C182.205 92.1853 175.921 98.3702 170.021 104.993C169.905 105.123 169.79 105.252 169.674 105.384C169.664 105.395 169.654 105.407 169.642 105.422C169.631 105.433 169.623 105.444 169.612 105.455C166.289 64.8237 167.761 41.1321 174.028 34.3789ZM415.348 32.6129C427.753 41.0861 435.765 64.0062 439.381 101.375C439.164 109.956 438.753 119.102 438.153 128.812C436.317 125.782 434.378 122.788 432.328 119.839L432.472 120.574C422.565 106.772 411.908 94.8054 400.501 84.6758C407.172 90.4207 413.454 96.6054 419.355 103.229C419.47 103.357 419.586 103.487 419.701 103.618C419.712 103.631 419.722 103.643 419.734 103.656C419.744 103.668 419.753 103.678 419.764 103.69C423.089 63.0589 421.614 39.3659 415.348 32.6129Z" fill="#000072"/>
</g>
</g>
<g opacity="0.649994">
<g opacity="0.649994">
<path opacity="0.649994" fill-rule="evenodd" clip-rule="evenodd" d="M358.282 57.0566C355.504 55.802 352.69 54.6313 349.844 53.5433C391.576 0.133801 418.746 -10.517 431.367 21.5505C417.927 -0.998962 393.566 10.836 358.287 57.0553L358.282 57.0566Z" fill="white"/>
</g>
</g>
<path fill-rule="evenodd" clip-rule="evenodd" d="M419.767 103.691C407.798 90.1688 394.233 78.4651 379.07 68.5816C413.059 8.12951 426.628 19.833 419.767 103.691Z" fill="#000072"/>
<path d="M383.981 67.5203C395.789 75.4852 406.724 84.6507 416.603 94.8615C417.891 76.0998 418.014 61.37 416.967 50.996C415.412 35.5995 411.781 34.232 411.372 34.127C410.616 33.9358 403.589 33.291 383.981 67.5203ZM422.863 112.74L416.797 105.886C405.099 92.6706 391.66 81.0756 376.852 71.4234L374.162 69.6704L375.672 66.9856C392.644 36.7995 403.935 24.9578 413.444 27.4045C421.386 29.4473 428.802 40.1389 423.582 103.951L422.863 112.74Z" fill="#000072"/>
<path d="M178.374 8.74947C176.837 8.74947 175.481 8.97667 174.285 9.36113C162.807 13.0482 150.329 35.4078 154.436 119.426C176.941 88.4255 203.541 66.4052 233.678 53.8422C204.954 17.8353 188.083 8.74947 178.374 8.74947ZM148.107 142.031L147.409 130.775C142.426 50.3814 150.16 9.70749 171.747 2.77234C188.661 -2.65959 211.858 13.8582 242.661 53.2794L245.444 56.8407L241.025 58.5295C207.621 71.2957 178.51 96.1447 154.498 132.386L148.107 142.031Z" fill="#000072"/>
<path d="M296.72 47.5679C206.502 47.5679 133.853 130.836 133.853 199.779C133.853 217.706 142.773 234.565 160.368 249.887C199.558 284.017 271.062 300.676 294.704 300.678C295.354 300.678 295.963 300.666 296.538 300.641C313.667 299.895 353.128 291.844 387.229 276.281C417.213 262.596 452.955 238.581 452.955 201.884C452.955 130.522 384.709 47.5679 296.72 47.5679ZM294.801 307.66C269.439 307.66 196.349 290.871 155.091 254.942C135.925 238.25 126.205 219.691 126.205 199.779C126.205 163.835 145.061 123.777 176.645 92.6255C210.177 59.5525 253.942 40.5838 296.72 40.5838C339.765 40.5838 381.263 59.4738 413.572 93.7742C443.021 125.038 460.603 165.453 460.603 201.884C460.603 233.756 436.412 261.642 390.646 282.528C355.551 298.545 314.7 306.842 296.902 307.617C296.245 307.646 295.542 307.66 294.801 307.66Z" fill="#000072"/>
<g opacity="0.559998">
<g opacity="0.559998">
<path opacity="0.559998" fill-rule="evenodd" clip-rule="evenodd" d="M300.619 185.336C303.962 186.141 306.435 187.608 306.145 188.615C305.854 189.62 302.91 189.784 299.567 188.979C296.225 188.175 293.75 186.707 294.041 185.7C294.331 184.694 297.277 184.531 300.619 185.336Z" fill="white"/>
</g>
</g>
<path d="M212.189 147.258C218.365 154.749 224.436 160.541 230.401 164.635C239.177 170.657 248.677 171.712 249.729 165.079C245.008 164.585 240.089 162.581 234.971 159.07C222.361 150.414 218.417 144.841 212.189 147.258Z" fill="#000072"/>
<path d="M355.707 52.0786C385.843 64.6406 412.445 86.6604 434.95 117.661C439.056 33.6432 426.579 11.2836 415.101 7.59671C406.341 4.78502 388.974 10.3763 355.707 52.0786ZM441.278 140.266L434.888 130.621C410.875 94.3791 381.762 69.5306 348.361 56.7659L343.941 55.077L346.724 51.5157C377.525 12.097 400.714 -4.43024 417.638 1.0083C439.226 7.94345 446.959 48.6169 441.976 129.011L441.278 140.266Z" fill="#000072"/>
</svg>
