<svg width="194" height="166" viewBox="0 0 194 166" fill="none" xmlns="http://www.w3.org/2000/svg">
<g opacity="0.1">
<path d="M187.715 63.016C187.715 63.016 188.391 65.6921 186.15 68.6799C186.15 68.6799 189.811 68.577 191.572 70.791C191.572 70.791 190.985 67.5729 193.5 65.1271C193.5 65.1271 190.063 65.6935 187.715 63.016Z" fill="white"/>
</g>
<path d="M2.22418 104.315C2.22418 104.315 3.18468 108.119 0 112.365C0 112.365 5.20304 112.219 7.70524 115.365C7.70524 115.365 6.8712 110.792 10.4458 107.316C10.4458 107.316 5.56049 108.121 2.22418 104.315Z" fill="white"/>
<path d="M176.749 104.005C176.749 104.005 177.424 106.681 175.184 109.668C175.184 109.668 178.845 109.565 180.605 111.779C180.605 111.779 180.018 108.561 182.534 106.116C182.534 106.116 179.096 106.682 176.749 104.005Z" fill="white"/>
<g opacity="0.300003">
<g opacity="0.300003">
<path opacity="0.300003" d="M182.383 158.717C182.383 161.498 144.247 163.752 97.2024 163.752C50.1583 163.752 12.0215 161.498 12.0215 158.717C12.0215 155.937 50.1583 153.683 97.2024 153.683C144.247 153.683 182.383 155.937 182.383 158.717Z" fill="#000072"/>
</g>
</g>
<path d="M168.897 152.421C165.517 156.031 160.558 158.062 155.379 158.062H39.0128C33.8344 158.062 28.8751 156.031 25.4947 152.421C23.6271 150.425 22.2464 148.201 21.3178 145.927C21.3144 145.927 21.3144 145.927 21.3144 145.923C18.393 138.785 19.8815 131.125 24.5417 128.37C32.3667 123.737 38.4007 129.398 38.4007 129.398C39.0684 127.953 39.9726 126.701 40.9847 125.627C44.7963 121.571 50.1382 120.027 50.1382 120.027C47.2342 104.684 53.7168 90.783 53.7168 90.783C53.7168 90.783 69.6902 101.903 97.196 101.903C124.702 101.903 140.675 90.783 140.675 90.783C140.675 90.783 147.158 104.684 144.254 120.027C144.254 120.027 152.806 122.5 155.991 129.398C155.991 129.398 162.025 123.737 169.85 128.37C175.995 132.006 176.625 144.171 168.897 152.421Z" fill="#B11313"/>
<g opacity="0.300003">
<g opacity="0.300003">
<path opacity="0.300003" d="M43.0417 143.543C44.1198 133.928 38.4023 129.779 38.4023 129.779C39.0701 128.334 39.9743 127.082 40.9863 126.008C49.8547 135.78 43.0417 143.543 43.0417 143.543Z" fill="#000072"/>
</g>
</g>
<g opacity="0.300003">
<g opacity="0.300003">
<path opacity="0.300003" d="M151.385 143.543C150.307 133.928 156.024 129.779 156.024 129.779C155.356 128.335 154.452 127.082 153.44 126.009C144.572 135.78 151.385 143.543 151.385 143.543Z" fill="#000072"/>
</g>
</g>
<g opacity="0.300003">
<g opacity="0.300003">
<path opacity="0.300003" d="M152.289 151.614C151.46 151.423 150.606 151.358 149.757 151.444C148.548 151.566 146.467 151.756 143.415 151.967C138.822 152.284 134.81 149.104 134.496 144.871C134.362 143.052 134.657 141.64 134.764 141.203C133.564 145.926 131.35 150.278 129.999 152.665C123.143 152.928 114.46 153.143 103.722 153.205C103.142 134.092 115.196 116.169 115.196 116.169C96.7278 129.779 79.2256 116.169 79.2256 116.169C91.4118 136.095 90.7774 152.375 90.7774 152.375L92.8297 153.216C81.1033 153.171 71.7253 152.946 64.422 152.665C63.0714 150.279 60.8564 145.927 59.6569 141.203C59.7682 141.657 60.0833 143.167 59.9062 145.092C59.525 149.234 55.5099 152.278 51.0092 151.967C47.9554 151.756 45.8737 151.566 44.6639 151.444C43.815 151.358 42.9608 151.423 42.1322 151.614C28.8916 154.65 21.5546 146.575 21.3184 146.307C22.2469 148.582 23.6276 150.806 25.4952 152.801C28.8756 156.412 33.8349 158.443 39.0133 158.443H97.2105H155.408C160.586 158.443 165.545 156.412 168.926 152.801C170.793 150.806 172.174 148.582 173.103 146.307C172.866 146.575 165.529 154.65 152.289 151.614Z" fill="#000072"/>
</g>
</g>
<g opacity="0.300003">
<g opacity="0.300003">
<path opacity="0.300003" d="M59.6604 141.203C59.6376 141.111 59.623 141.061 59.623 141.061C59.635 141.108 59.6482 141.155 59.6604 141.203Z" fill="#000072"/>
</g>
</g>
<g opacity="0.300003">
<g opacity="0.300003">
<path opacity="0.300003" d="M134.758 141.203C134.77 141.156 134.783 141.108 134.795 141.061C134.795 141.061 134.781 141.111 134.758 141.203Z" fill="#000072"/>
</g>
</g>
<path d="M97.1855 157.333H155.383C160.265 157.333 164.86 155.418 167.989 152.077C172.032 147.761 174.025 141.785 173.192 136.48C172.704 133.375 171.25 130.898 169.203 129.686C162.283 125.588 157.072 130.355 156.854 130.56C156.572 130.824 156.166 130.943 155.77 130.873C155.374 130.804 155.042 130.558 154.884 130.217C151.95 123.862 143.976 121.493 143.896 121.47C143.318 121.303 142.965 120.768 143.069 120.22C145.378 108.027 141.563 96.6189 140.103 92.8811C135.729 95.5151 120.68 103.397 97.1996 103.397C73.7189 103.397 58.6697 95.5151 54.2965 92.8811C52.8358 96.6189 49.0209 108.027 51.3304 120.22C51.4343 120.768 51.0807 121.303 50.5036 121.47C50.4248 121.493 42.4373 123.887 39.5146 130.217C39.357 130.558 39.0249 130.804 38.6294 130.873C38.234 130.942 37.8269 130.824 37.5449 130.56C37.3272 130.359 32.072 125.614 25.1958 129.686C23.1492 130.898 21.6954 133.375 21.2075 136.48C20.3741 141.785 22.3675 147.762 26.4101 152.077C29.5394 155.418 34.1341 157.333 39.016 157.333H97.1855ZM155.383 159.555H39.016C33.4324 159.555 28.1723 157.358 24.5846 153.528C20.099 148.74 17.8905 142.086 18.8211 136.162C19.4177 132.364 21.2186 129.401 23.8919 127.817C30.2543 124.05 35.6226 126.511 37.9817 128.043C40.974 122.996 46.5258 120.52 48.7917 119.684C46.2684 104.569 52.3471 91.2945 52.6123 90.726C52.7585 90.4122 53.0531 90.1782 53.4113 90.0909C53.7699 90.0033 54.1515 90.0724 54.447 90.2783C54.6032 90.3865 70.4653 101.176 97.1996 101.176C123.934 101.176 139.796 90.3865 139.953 90.2777C140.249 90.0724 140.631 90.0036 140.989 90.0912C141.346 90.1788 141.641 90.4125 141.787 90.726C142.052 91.2945 148.131 104.569 145.607 119.684C147.873 120.52 153.425 122.996 156.417 128.043C158.776 126.511 164.144 124.049 170.507 127.817C173.181 129.401 174.981 132.364 175.578 136.162C176.509 142.085 174.3 148.74 169.815 153.528C166.227 157.358 160.967 159.555 155.383 159.555Z" fill="#000072"/>
<path d="M39.1047 128.875C39.237 128.958 39.2987 129.004 39.3898 129.066C39.4762 129.125 39.5459 129.181 39.6248 129.239C39.7815 129.356 39.9138 129.479 40.0557 129.6C40.2009 129.719 40.3206 129.85 40.451 129.977C40.5823 130.104 40.7056 130.234 40.8212 130.369C41.3015 130.899 41.7054 131.471 42.0656 132.061C42.7875 133.242 43.267 134.515 43.6004 135.797C43.9255 137.084 44.0455 138.39 44.0457 139.681C44.0482 140.326 43.9701 140.968 43.9225 141.604C43.8185 142.239 43.705 142.868 43.5608 143.489C43.5332 143.607 43.4067 143.683 43.2782 143.657C43.1805 143.638 43.1098 143.566 43.0935 143.481L43.0907 143.465C42.9726 142.842 42.899 142.227 42.8102 141.618L42.6374 140.712C42.5742 140.412 42.5506 140.11 42.4641 139.815C42.3021 139.227 42.2153 138.632 42.0109 138.063C41.9219 137.777 41.8521 137.487 41.7551 137.205L41.4442 136.369C41.0153 135.266 40.4913 134.212 39.8601 133.236C39.6957 132.997 39.5418 132.75 39.3632 132.524L39.105 132.176L38.8281 131.846C38.6526 131.619 38.4489 131.419 38.2583 131.213C38.16 131.116 38.0625 131.01 37.9633 130.923C37.9157 130.879 37.8648 130.826 37.8198 130.787C37.7797 130.751 37.714 130.695 37.7095 130.686L37.4493 130.205C37.1699 129.688 37.3983 129.06 37.9595 128.803C38.3397 128.628 38.7765 128.67 39.1047 128.875Z" fill="#000072"/>
<path d="M156.666 130.686C156.662 130.695 156.596 130.751 156.556 130.787C156.511 130.826 156.46 130.879 156.412 130.923C156.313 131.01 156.216 131.116 156.117 131.213C155.927 131.419 155.723 131.619 155.548 131.846L155.271 132.176L155.013 132.524C154.834 132.75 154.68 132.998 154.516 133.237C153.884 134.212 153.361 135.266 152.932 136.369L152.621 137.205C152.524 137.487 152.454 137.777 152.365 138.063C152.161 138.632 152.074 139.227 151.912 139.816C151.825 140.11 151.802 140.412 151.738 140.712L151.566 141.618C151.477 142.227 151.403 142.842 151.285 143.465L151.282 143.481C151.26 143.6 151.136 143.68 151.007 143.659C150.908 143.643 150.835 143.574 150.815 143.489C150.671 142.868 150.557 142.239 150.453 141.604C150.406 140.968 150.328 140.326 150.33 139.681C150.33 138.391 150.45 137.084 150.775 135.797C151.109 134.515 151.588 133.242 152.31 132.061C152.67 131.471 153.074 130.899 153.555 130.369C153.67 130.234 153.794 130.104 153.925 129.977C154.055 129.85 154.175 129.719 154.32 129.6C154.462 129.479 154.594 129.356 154.751 129.239C154.83 129.181 154.9 129.125 154.986 129.066C155.077 129.004 155.139 128.958 155.271 128.875C155.789 128.55 156.495 128.673 156.848 129.15C157.088 129.473 157.103 129.876 156.927 130.204L156.666 130.686Z" fill="#000072"/>
<path d="M51.3409 120.277L51.4392 121.165L51.5619 122.157C51.6051 122.495 51.6626 122.835 51.6944 123.191C51.7298 123.546 51.7507 123.914 51.7312 124.312L51.7311 124.314C51.728 124.376 51.6706 124.425 51.6026 124.422C51.5783 124.421 51.5559 124.413 51.5374 124.401C51.1832 124.171 50.8784 123.908 50.6146 123.62C50.3445 123.335 50.1234 123.024 49.9078 122.705C49.6971 122.384 49.5052 122.05 49.3382 121.7C49.2596 121.524 49.1781 121.346 49.1149 121.159C49.0807 121.067 49.0499 120.971 49.0224 120.874C48.9925 120.768 48.9726 120.691 48.9468 120.541C48.8422 119.935 49.2908 119.365 49.9488 119.269C50.6069 119.172 51.2251 119.586 51.3295 120.192C51.3329 120.211 51.3357 120.231 51.338 120.25L51.3409 120.277Z" fill="#000072"/>
<path d="M145.477 120.541C145.452 120.691 145.432 120.768 145.402 120.874C145.374 120.971 145.343 121.067 145.309 121.159C145.246 121.346 145.165 121.524 145.086 121.7C144.919 122.05 144.727 122.384 144.516 122.705C144.301 123.024 144.08 123.335 143.81 123.621C143.546 123.908 143.241 124.171 142.887 124.401C142.831 124.437 142.755 124.425 142.715 124.374C142.701 124.355 142.694 124.335 142.693 124.314L142.693 124.312C142.673 123.914 142.694 123.546 142.73 123.191C142.762 122.835 142.819 122.495 142.862 122.157L142.985 121.165L143.083 120.277L143.086 120.254C143.153 119.643 143.746 119.199 144.408 119.261C145.071 119.323 145.554 119.869 145.486 120.479C145.484 120.499 145.481 120.522 145.477 120.541Z" fill="#000072"/>
<path d="M57.19 131.286C57.19 131.286 51.6708 127.344 50.1431 120.41C50.1431 120.41 46.9679 118.931 44.7734 122.931C44.7734 122.931 47.3049 135.143 59.6231 141.061C59.6231 141.061 57.8431 134.774 57.19 131.286Z" fill="#0096F2"/>
<path d="M46.0495 123.091C46.5467 124.956 49.2238 133.471 57.7444 138.743C57.2052 136.728 56.4906 133.943 56.0809 131.881C54.8027 130.861 50.6428 127.169 49.1145 121.267C48.4204 121.157 47.171 121.285 46.0495 123.091ZM59.6235 142.172C59.4332 142.172 59.242 142.13 59.0662 142.046C46.3768 135.95 43.6976 123.661 43.5898 123.14C43.5398 122.9 43.5779 122.65 43.6981 122.431C45.0688 119.933 46.8612 119.224 48.1234 119.07C49.5201 118.899 50.5721 119.365 50.6875 119.419C51.0169 119.573 51.2519 119.856 51.3253 120.19C52.74 126.611 57.8795 130.373 57.9312 130.411C58.1671 130.581 58.3279 130.827 58.3786 131.098C59.0156 134.499 60.7727 140.719 60.7903 140.781C60.9105 141.206 60.7477 141.656 60.3748 141.93C60.1569 142.09 59.8911 142.172 59.6235 142.172Z" fill="#000072"/>
<path d="M137.238 131.286C137.238 131.286 142.757 127.344 144.285 120.41C144.285 120.41 147.46 118.931 149.654 122.931C149.654 122.931 147.123 135.143 134.805 141.061C134.805 141.061 136.585 134.774 137.238 131.286Z" fill="#0096F2"/>
<path d="M138.346 131.881C137.936 133.943 137.222 136.728 136.683 138.743C145.203 133.471 147.88 124.957 148.377 123.091C147.698 121.995 146.895 121.383 145.987 121.273C145.732 121.241 145.499 121.254 145.309 121.282C143.777 127.176 139.623 130.862 138.346 131.881ZM134.803 142.172C134.536 142.172 134.27 142.09 134.052 141.93C133.679 141.656 133.516 141.206 133.637 140.781C133.654 140.719 135.411 134.499 136.048 131.098C136.099 130.826 136.259 130.581 136.496 130.411C136.547 130.374 141.687 126.611 143.102 120.19C143.175 119.857 143.41 119.573 143.74 119.419C143.855 119.366 144.907 118.899 146.304 119.071C147.566 119.225 149.358 119.933 150.729 122.431C150.849 122.65 150.887 122.9 150.837 123.141C150.729 123.661 148.05 135.95 135.361 142.046C135.185 142.13 134.994 142.172 134.803 142.172Z" fill="#000072"/>
<path d="M73.8203 102.916C73.8203 102.916 75.8925 108.327 75.2963 116.222L82.124 121.695C82.124 121.695 83.9083 112.157 80.8692 104.235L73.8203 102.916Z" fill="#0096F2"/>
<path d="M76.5333 115.744L81.202 119.486C81.5181 116.442 81.7877 110.474 79.945 105.195L75.5108 104.365C76.0838 106.562 76.8486 110.603 76.5333 115.744ZM82.1204 122.805C81.8339 122.805 81.5516 122.71 81.3288 122.532L74.5013 117.059C74.216 116.83 74.0637 116.492 74.0898 116.144C74.6596 108.6 72.699 103.335 72.6792 103.283C72.5358 102.906 72.6231 102.487 72.9082 102.186C73.1935 101.885 73.6325 101.749 74.0565 101.826L81.1053 103.145C81.5206 103.223 81.8611 103.496 82.0021 103.864C85.1104 111.966 83.3832 121.482 83.3084 121.883C83.2343 122.278 82.9348 122.606 82.5245 122.74C82.3927 122.783 82.256 122.805 82.1204 122.805Z" fill="#000072"/>
<path d="M120.607 102.916C120.607 102.916 118.535 108.327 119.131 116.222L112.304 121.695C112.304 121.695 110.519 112.157 113.558 104.235L120.607 102.916Z" fill="#0096F2"/>
<path d="M114.479 105.195C112.633 110.484 112.904 116.446 113.221 119.487L117.891 115.744C117.576 110.603 118.341 106.562 118.913 104.365L114.479 105.195ZM112.304 122.805C112.168 122.805 112.032 122.783 111.9 122.74C111.49 122.606 111.19 122.278 111.116 121.883C111.041 121.482 109.314 111.966 112.422 103.863C112.563 103.496 112.904 103.223 113.319 103.145L120.368 101.826C120.793 101.746 121.232 101.884 121.517 102.186C121.802 102.487 121.889 102.907 121.745 103.284C121.713 103.367 119.767 108.623 120.334 116.144C120.361 116.492 120.208 116.83 119.923 117.059L113.095 122.532C112.873 122.71 112.59 122.805 112.304 122.805Z" fill="#000072"/>
<path d="M90.4025 154.975C88.6844 162.747 78.891 166.303 72.0085 161.539C66.6214 157.813 60.7058 149.291 57.0506 130.603C56.7028 128.812 56.3725 126.925 56.0664 124.942L58.393 122.911L73.817 109.436C73.817 109.436 89.0114 131.106 90.6946 147.718V147.721C90.9589 150.294 90.8963 152.745 90.4025 154.975Z" fill="#B11313"/>
<g opacity="0.300003">
<g opacity="0.300003">
<path opacity="0.300003" d="M90.4035 154.975C88.6855 162.747 78.8921 166.303 72.0095 161.539C66.6224 157.813 60.7067 149.291 57.0516 130.603C51.908 127.749 50.1413 120.409 50.1413 120.409C47.9224 110.663 50.4821 101.68 50.4821 101.68C49.995 113.542 55.1061 119.201 57.2142 121.017C57.8015 121.524 58.2121 122.176 58.391 122.899C58.392 122.903 58.393 122.907 58.394 122.911C62.1605 138.264 68.4691 156.967 77.6227 158.307C86.4597 159.598 90.2679 148.993 90.6956 147.721C90.9599 150.294 90.8973 152.745 90.4035 154.975Z" fill="#000072"/>
</g>
</g>
<path d="M75.1394 108.399C76.8956 110.161 78.2842 112.127 79.5433 114.157C80.1682 115.175 80.7382 116.219 81.3045 117.264C81.8708 118.31 82.4254 119.361 82.966 120.419C85.1307 124.649 87.1015 128.974 88.7386 133.431C90.3773 137.882 91.6968 142.482 92.178 147.27C92.4094 149.661 92.4236 152.107 91.9827 154.556C91.8871 155.157 91.7478 155.802 91.533 156.423C91.3384 157.049 91.0621 157.653 90.763 158.245C90.1388 159.418 89.3071 160.501 88.3151 161.437C86.3109 163.291 83.6627 164.541 80.851 164.908C79.4489 165.11 78.0087 165.066 76.6113 164.838C75.2148 164.593 73.8663 164.131 72.6335 163.496C72.0305 163.167 71.4232 162.806 70.8992 162.408L70.1133 161.814C69.848 161.619 69.6201 161.392 69.3722 161.182C69.1329 160.966 68.878 160.761 68.6525 160.534L67.9801 159.852C67.516 159.407 67.1311 158.913 66.7146 158.438C65.1051 156.505 63.8214 154.402 62.6945 152.258C61.5492 150.117 60.6736 147.889 59.8255 145.662C59.0386 143.419 58.3217 141.16 57.732 138.878C57.4406 137.737 57.1276 136.599 56.8898 135.45C56.6448 134.301 56.3513 133.161 56.1733 132.003C55.7789 129.692 55.5938 127.35 55.8108 124.974C55.823 124.84 55.9511 124.74 56.0969 124.752C56.1985 124.76 56.2819 124.819 56.3189 124.9L56.3221 124.907C56.8234 126.011 57.2026 127.125 57.5295 128.245C57.8516 129.366 58.1852 130.479 58.4382 131.607C58.68 132.737 58.9634 133.855 59.2303 134.978C59.4836 136.104 59.8101 137.211 60.1147 138.323C60.7308 140.546 61.468 142.731 62.2671 144.891C63.1241 147.026 64.0047 149.157 65.1243 151.163C66.2211 153.177 67.472 155.11 68.942 156.85C69.3217 157.274 69.6739 157.724 70.0892 158.111L70.6907 158.713C70.8918 158.913 71.1158 159.087 71.3265 159.276C71.544 159.456 71.7455 159.657 71.9752 159.821L72.6541 160.325C73.1039 160.663 73.5635 160.924 74.0434 161.185C75.0126 161.674 76.0566 162.022 77.1359 162.204C78.2163 162.369 79.3281 162.4 80.4139 162.232C82.5933 161.936 84.6434 160.937 86.1834 159.501C86.9507 158.778 87.5947 157.946 88.0816 157.038C88.3122 156.579 88.532 156.112 88.6834 155.622C88.8536 155.138 88.9622 154.643 89.05 154.097C89.4409 151.967 89.4448 149.736 89.234 147.512C89.0204 145.284 88.591 143.054 88.0352 140.843C87.4826 138.63 86.792 136.436 86.0234 134.263C84.4827 129.914 82.6 125.65 80.5187 121.468C79.9991 120.422 79.4652 119.381 78.9196 118.346C78.3767 117.309 77.8052 116.286 77.2757 115.242C76.2063 113.159 75.1991 111.042 74.4044 108.804L74.4018 108.797C74.3266 108.585 74.4519 108.358 74.6813 108.289C74.8494 108.238 75.027 108.287 75.1394 108.399Z" fill="#000072"/>
<path d="M60.4267 144.652C60.102 144.652 59.7781 144.533 59.5406 144.295C59.0892 143.845 59.1191 143.143 59.6077 142.727C60.055 142.346 70.7489 133.384 87.1218 132.256C87.7839 132.207 88.3642 132.669 88.4139 133.281C88.4635 133.893 87.9654 134.426 87.3014 134.471C71.7973 135.539 61.3477 144.27 61.2439 144.358C61.0122 144.555 60.7189 144.652 60.4267 144.652Z" fill="#000072"/>
<path d="M104.02 154.975C105.738 162.747 115.532 166.303 122.414 161.539C127.801 157.813 133.717 149.291 137.372 130.603C137.72 128.812 138.05 126.925 138.356 124.942L136.03 122.911L120.606 109.436C120.606 109.436 105.411 131.106 103.728 147.718V147.721C103.464 150.294 103.526 152.745 104.02 154.975Z" fill="#B11313"/>
<g opacity="0.300003">
<g opacity="0.300003">
<path opacity="0.300003" d="M104.03 154.975C105.748 162.747 115.542 166.303 122.424 161.539C127.811 157.813 133.727 149.291 137.382 130.603C142.526 127.749 144.292 120.409 144.292 120.409C146.511 110.663 143.952 101.68 143.952 101.68C144.439 113.542 139.328 119.201 137.219 121.017C136.632 121.524 136.222 122.176 136.043 122.899C136.042 122.903 136.041 122.907 136.04 122.911C132.273 138.264 125.964 156.967 116.811 158.307C107.974 159.598 104.166 148.993 103.738 147.721C103.474 150.294 103.536 152.745 104.03 154.975Z" fill="#000072"/>
</g>
</g>
<path d="M120.024 108.804C119.23 111.042 118.223 113.159 117.153 115.242C116.624 116.285 116.052 117.309 115.509 118.346C114.964 119.381 114.43 120.422 113.91 121.468C111.829 125.65 109.946 129.914 108.405 134.263C107.637 136.436 106.946 138.63 106.394 140.843C105.838 143.053 105.408 145.284 105.195 147.512C104.984 149.736 104.988 151.967 105.379 154.097C105.467 154.643 105.575 155.138 105.745 155.622C105.897 156.112 106.117 156.579 106.347 157.038C106.834 157.946 107.478 158.778 108.245 159.5C109.785 160.937 111.836 161.936 114.015 162.233C115.101 162.4 116.213 162.369 117.293 162.204C118.372 162.022 119.416 161.674 120.385 161.185C120.865 160.924 121.325 160.663 121.775 160.325L122.454 159.821C122.683 159.657 122.885 159.456 123.102 159.276C123.313 159.087 123.537 158.913 123.738 158.713L124.34 158.112C124.755 157.724 125.107 157.274 125.487 156.85C126.957 155.11 128.208 153.177 129.305 151.163C130.424 149.157 131.305 147.026 132.162 144.891C132.961 142.731 133.698 140.546 134.314 138.323C134.619 137.211 134.945 136.104 135.199 134.978C135.465 133.855 135.749 132.737 135.991 131.607C136.244 130.479 136.577 129.366 136.899 128.245C137.226 127.125 137.606 126.011 138.107 124.907L138.11 124.901C138.166 124.776 138.321 124.718 138.456 124.77C138.551 124.806 138.61 124.887 138.618 124.974C138.835 127.35 138.65 129.692 138.256 132.003C138.078 133.161 137.784 134.301 137.539 135.45C137.301 136.599 136.988 137.737 136.697 138.878C136.107 141.16 135.39 143.419 134.603 145.662C133.755 147.889 132.88 150.117 131.734 152.258C130.607 154.402 129.324 156.505 127.714 158.438C127.298 158.913 126.913 159.407 126.449 159.852L125.776 160.534C125.551 160.761 125.296 160.966 125.057 161.182C124.809 161.392 124.581 161.619 124.316 161.814L123.53 162.408C123.006 162.806 122.398 163.167 121.795 163.496C120.563 164.131 119.214 164.593 117.818 164.838C116.42 165.066 114.98 165.11 113.578 164.908C110.766 164.541 108.118 163.291 106.114 161.437C105.122 160.501 104.29 159.418 103.666 158.245C103.367 157.653 103.091 157.049 102.896 156.423C102.681 155.802 102.542 155.157 102.446 154.556C102.005 152.107 102.02 149.661 102.251 147.27C102.732 142.482 104.052 137.882 105.69 133.431C107.327 128.974 109.298 124.649 111.463 120.419C112.003 119.361 112.558 118.31 113.124 117.264C113.691 116.219 114.261 115.175 114.886 114.157C116.145 112.127 117.533 110.161 119.289 108.399C119.453 108.235 119.729 108.224 119.907 108.375C120.038 108.485 120.079 108.651 120.027 108.796L120.024 108.804Z" fill="#000072"/>
<path d="M134.003 144.652C133.71 144.652 133.417 144.555 133.185 144.358C133.081 144.27 122.632 135.539 107.128 134.471C106.464 134.425 105.966 133.892 106.015 133.28C106.065 132.669 106.644 132.207 107.307 132.256C123.68 133.383 134.374 142.345 134.821 142.726C135.31 143.143 135.34 143.845 134.888 144.296C134.65 144.533 134.327 144.652 134.003 144.652Z" fill="#000072"/>
<path d="M97.2304 98.7066C128.761 98.7066 141.281 86.0176 141.281 86.0176C141.281 86.0176 141.806 87.1101 142.062 88.663C142.485 91.2341 141.3 93.8134 139.043 95.3754C134.082 98.809 121.449 105.352 97.214 105.352C72.9794 105.352 60.3462 98.809 55.3849 95.3754C53.1279 93.8134 51.9427 91.2341 52.3661 88.663C52.6218 87.1101 53.1471 86.0176 53.1471 86.0176C53.1471 86.0176 65.6667 98.7066 97.1976 98.7066" fill="#751313"/>
<g opacity="0.300003">
<g opacity="0.300003">
<path opacity="0.300003" d="M141.945 88.0679C141.539 89.6805 140.523 91.1459 139.041 92.1717C134.08 95.6052 121.447 102.148 97.212 102.148C72.9774 102.148 60.3442 95.6052 55.3829 92.1717C53.9009 91.1459 52.8851 89.6805 52.4793 88.0679C52.4375 88.2573 52.3983 88.4557 52.3642 88.6631C51.9407 91.2342 53.1259 93.8135 55.3829 95.3754C60.3442 98.809 72.9774 105.352 97.212 105.352C121.447 105.352 134.08 98.809 139.041 95.3754C141.298 93.8135 142.483 91.2342 142.06 88.6631C142.026 88.4557 141.987 88.2573 141.945 88.0679Z" fill="#000072"/>
</g>
</g>
<path d="M97.2153 106.463C73.0131 106.463 60.1661 100.073 54.6622 96.2639C52.0233 94.4373 50.6872 91.4613 51.1754 88.4971C51.4521 86.8161 52.0218 85.6184 52.0459 85.5683C52.2111 85.2248 52.5533 84.9814 52.9558 84.9216C53.3575 84.8609 53.7661 84.993 54.0405 85.2708C54.1615 85.3925 66.6598 97.5964 97.199 97.5964V99.8178C71.1158 99.8178 57.8848 91.3418 53.7219 88.041C53.6619 88.2844 53.6056 88.5491 53.5593 88.8301C53.2045 90.9851 54.182 93.1533 56.1106 94.488C61.3739 98.1305 73.7133 104.241 97.2153 104.241C120.717 104.241 133.057 98.1305 138.32 94.488C140.249 93.1533 141.226 90.9854 140.871 88.8301C140.825 88.5491 140.769 88.2844 140.709 88.041C136.546 91.3418 123.315 99.8178 97.2315 99.8178V97.5964C127.875 97.5964 140.268 85.3941 140.39 85.2708C140.664 84.993 141.073 84.8616 141.475 84.9216C141.877 84.9814 142.219 85.2248 142.385 85.5683C142.409 85.6184 142.978 86.8161 143.255 88.4971C143.743 91.4613 142.407 94.4376 139.769 96.2639C134.265 100.073 121.418 106.463 97.2153 106.463Z" fill="#000072"/>
<g opacity="0.3">
<path d="M1.90093 14.9146C1.90093 14.9146 2.5768 17.5906 0.335938 20.5784C0.335938 20.5784 3.99691 20.4754 5.75757 22.6895C5.75757 22.6895 5.17066 19.4714 7.68585 17.0257C7.68585 17.0257 4.24843 17.592 1.90093 14.9146Z" fill="white"/>
</g>
<path d="M53.1738 95.4084L72.615 136.178" stroke="#000072" stroke-miterlimit="10"/>
<path d="M120.969 136.178L140.822 95.4087" stroke="#000072" stroke-miterlimit="10"/>
<path fill-rule="evenodd" clip-rule="evenodd" d="M95.7878 112.059C95.7797 112.157 95.715 112.245 95.6719 112.341C95.6302 112.435 95.592 112.535 95.556 112.633C95.462 112.889 95.3742 113.141 95.3822 113.473C95.7028 113.512 96.107 113.483 96.3962 113.445C96.5543 113.51 96.6558 113.61 96.8018 113.682C96.7742 113.559 96.9059 113.535 97.019 113.5C96.9688 113.554 96.8909 113.59 96.9176 113.692C96.9836 113.719 96.9942 113.646 97.048 113.637C97.1226 113.69 97.2171 113.687 97.2943 113.637C97.3497 113.645 97.3347 113.697 97.3957 113.701C97.4817 113.63 97.3589 113.553 97.3232 113.5C97.4307 113.536 97.5531 113.562 97.5406 113.673C97.6576 113.628 97.8001 113.521 97.9171 113.445C98.2189 113.485 98.6047 113.504 98.9601 113.482C98.9482 112.927 98.7342 112.499 98.5255 112.068C98.5834 112.063 98.5829 112.111 98.598 112.132C98.8135 112.425 99.0052 112.76 99.163 113.117C99.1858 113.169 99.2244 113.239 99.2498 113.308C99.2721 113.369 99.3191 113.475 99.3078 113.509C99.2829 113.584 99.0867 113.609 99.047 113.673C98.9264 113.584 98.579 113.61 98.2503 113.6C98.1572 113.598 98.0323 113.581 97.9752 113.591C97.8488 113.614 97.7936 113.73 97.7289 113.792C97.9074 113.8 98.0483 113.691 98.2069 113.682C98.3074 113.677 98.4545 113.725 98.5834 113.746C98.957 113.809 99.3735 113.861 99.7134 113.929C99.7339 113.195 99.4347 112.584 99.0326 112.086C99.4322 112.433 99.7013 112.84 99.9017 113.318C99.9363 113.4 99.966 113.479 99.9886 113.564C100.02 113.683 100.022 113.831 100.119 113.92C99.9988 114.002 99.8543 114.069 99.7278 114.148C99.3719 114.014 98.6843 113.821 98.1055 113.856C97.9669 113.864 97.8444 113.908 97.7433 113.965C97.9202 114.01 98.0426 114.014 98.2792 114.011C98.3381 114.01 98.4232 113.995 98.4676 114.002C98.5179 114.01 98.5986 114.075 98.6704 114.12C99.0887 114.384 99.463 114.577 99.9596 114.786C100.115 114.852 100.202 114.918 100.38 114.832C100.409 115.698 100.044 116.337 99.5975 116.921C99.5454 116.989 99.5124 117.068 99.4237 117.122C99.7595 116.623 100.018 116.029 100.018 115.334C100.018 115.261 100.04 115.17 100.018 115.106C99.9861 115.015 99.7582 114.918 99.6264 114.841C99.2521 114.624 98.9544 114.471 98.54 114.266C98.4588 114.226 98.3899 114.172 98.3228 114.157C98.2522 114.141 98.1409 114.137 98.062 114.13C97.9633 114.12 97.8684 114.117 97.7868 114.111C97.9469 114.22 98.2009 114.354 98.4241 114.458C98.4648 114.481 98.5074 114.45 98.5546 114.449C98.6075 115.466 98.4877 116.462 98.0331 117.204C97.9244 117.381 97.8043 117.555 97.613 117.688C98.2307 116.985 98.2772 115.779 98.1489 114.723C98.2802 114.651 98.2232 114.591 98.1055 114.504C97.9768 114.408 97.7483 114.268 97.5985 114.221C97.5879 114.268 97.6137 114.315 97.6419 114.358C97.6702 114.401 97.733 114.438 97.7433 114.476C97.7652 114.558 97.7124 114.737 97.6853 114.832C97.5958 115.147 97.407 115.492 97.2363 115.726C97.1762 115.721 97.2184 115.652 97.1784 115.635C97.1141 115.637 97.1531 115.704 97.1205 115.726C96.921 115.512 96.7507 115.157 96.6569 114.832C96.6234 114.716 96.5713 114.576 96.599 114.476C96.6209 114.397 96.7565 114.325 96.7438 114.23C96.6112 114.249 96.4876 114.332 96.3817 114.403C96.2762 114.474 96.1666 114.55 96.092 114.631C96.1009 114.671 96.1627 114.678 96.1789 114.713C96.0839 115.783 96.087 116.986 96.7293 117.678C96.6616 117.673 96.6301 117.619 96.599 117.587C96.001 116.985 95.8403 116.056 95.7733 115.097C95.7585 114.885 95.7433 114.677 95.7878 114.467C95.8001 114.423 95.8746 114.488 95.9181 114.458C96.1467 114.35 96.3527 114.227 96.57 114.111C96.3808 114.13 96.1752 114.124 96.0051 114.166C95.8574 114.203 95.6958 114.304 95.556 114.376C95.1308 114.594 94.6828 114.831 94.3247 115.078C94.2516 115.892 94.5477 116.548 94.9041 117.122C94.3899 116.49 93.9128 115.788 93.9626 114.832C94.1585 114.949 94.4569 114.759 94.6144 114.686C95.0531 114.484 95.5214 114.223 95.8602 114.002C96.1056 114.025 96.3937 114.006 96.599 113.974C96.3431 113.769 95.687 113.872 95.2953 113.947C95.0324 113.997 94.7871 114.07 94.6289 114.148C94.4785 114.084 94.3635 113.999 94.2233 113.929C94.3259 113.767 94.3478 113.494 94.4262 113.308C94.6176 112.856 94.9163 112.455 95.2807 112.086C95.2711 112.156 95.194 112.216 95.1504 112.278C94.8329 112.722 94.624 113.273 94.6144 113.92C94.9492 113.872 95.3488 113.813 95.7443 113.746C95.8733 113.725 96.0068 113.68 96.1064 113.682C96.2674 113.686 96.4188 113.791 96.599 113.792C96.5562 113.706 96.4745 113.645 96.3817 113.591C96.0833 113.613 95.7501 113.579 95.4836 113.61C95.4564 113.613 95.4208 113.623 95.3822 113.637C95.3857 113.636 95.2961 113.673 95.3098 113.673C95.2495 113.673 95.1024 113.541 95.0346 113.527C95.1737 112.967 95.4879 112.518 95.7878 112.059Z" fill="#000072"/>
<path fill-rule="evenodd" clip-rule="evenodd" d="M97.2168 106.463V122.215V106.463Z" fill="#000072"/>
<path d="M97.2168 106.463V122.215" stroke="#000072" stroke-miterlimit="10"/>
<path d="M91.8781 106.354C91.8781 106.354 92.818 119.258 91.4414 121.543" stroke="#000072" stroke-miterlimit="10"/>
<path d="M87.6524 106.108C87.6524 106.108 89.772 112.078 86.709 120.143" stroke="#000072" stroke-miterlimit="10"/>
<path d="M102.087 106.462C102.087 106.462 101.104 117.896 102.525 121.789" stroke="#000072" stroke-miterlimit="10"/>
<path d="M107.101 106.107C107.101 106.107 104.854 117.445 108.191 120.143" stroke="#000072" stroke-miterlimit="10"/>
<path d="M83.2617 108.375C83.2617 108.375 85.3782 106.514 88.1579 108.375C88.1579 108.375 89.6067 106.528 92.0161 108.629C92.0161 108.629 93.3301 106.329 97.1978 108.375C97.1978 108.375 98.8301 106.452 101.759 108.375C101.759 108.375 104.059 106.24 106.754 108.269C106.754 108.269 109.157 105.859 111.238 108.011" stroke="#000072" stroke-miterlimit="10"/>
<path d="M96.9067 111.33C96.831 111.281 96.7558 111.234 96.6812 111.19C94.047 109.635 92.1355 111.373 92.1355 111.373C90.1814 109.504 88.3692 111.373 88.3692 111.373C85.3316 108.108 83.6914 111.373 83.6914 111.373" stroke="#000072" stroke-miterlimit="10"/>
<path d="M96.832 111.365C96.832 111.365 99.2333 109.591 101.759 111.365C101.759 111.365 104.214 109.17 106.362 111.463C106.362 111.463 109.552 109.202 110.742 111.417" stroke="#000072" stroke-miterlimit="10"/>
<path d="M83.6914 116.827C83.6914 116.827 85.6404 113.869 87.6916 117.078C87.6916 117.078 91.3702 114.737 92.153 118.006C92.153 118.006 95.199 116.58 97.328 118.928C97.328 118.928 99.5836 116.497 102.196 118.351C102.196 118.351 103.941 114.634 106.893 117.502C106.893 117.502 108.713 114.402 110.741 116.17" stroke="#000072" stroke-miterlimit="10"/>
<path d="M83.4922 118.595C83.4922 118.595 86.0303 116.224 87.1402 118.927C87.1402 118.927 90.796 117.405 91.8168 120.143C91.8168 120.143 95.5945 118.318 97.1671 121.238C97.1671 121.238 99.4023 119.298 102.089 120.616C102.089 120.616 104.559 117.194 107.417 119.214C107.417 119.214 109.451 116.014 110.669 118.006" stroke="#000072" stroke-miterlimit="10"/>
<path d="M61.2441 144.358C61.2441 144.358 72.4934 133.465 86.7123 134.516L89.9446 143.662C89.9446 143.662 86.4508 157.241 64.4255 152.665L61.2441 144.358Z" fill="#000072"/>
<path d="M61.2441 144.358C61.2441 144.358 72.4934 133.465 86.7123 134.516L89.9446 143.662C89.9446 143.662 86.4508 157.241 64.4255 152.665L61.2441 144.358Z" stroke="#000072" stroke-miterlimit="10"/>
<path d="M103.967 145.909L107.279 132.934L122.888 137.306L132.189 142.171V145.909L130.005 152.665C130.005 152.665 114.378 157.404 103.967 145.909Z" fill="#000072"/>
<path d="M103.967 145.909L107.279 132.934L122.888 137.306L132.189 142.171V145.909L130.005 152.665C130.005 152.665 114.378 157.404 103.967 145.909Z" stroke="#000072" stroke-miterlimit="10"/>
<path d="M24.9727 128.629L36.9893 157.332" stroke="#000072" stroke-miterlimit="10"/>
<path d="M21.8516 132.254C21.8516 132.254 23.9279 145.54 32.9919 157.117" stroke="#000072" stroke-miterlimit="10"/>
<path d="M29.8516 127.525C29.8516 127.525 39.2372 142.204 40.6873 157.564" stroke="#000072" stroke-miterlimit="10"/>
<path d="M35.873 128.629C35.873 128.629 41.5654 139.082 44.7747 157.332" stroke="#000072" stroke-miterlimit="10"/>
<path d="M20.5781 138.453C20.5781 138.453 20.6018 135.513 22.8704 136.653C22.8704 136.653 23.7145 131.512 27.4226 134.776C27.4226 134.776 27.563 129.557 32.7451 132.686C32.7451 132.686 34.2232 128.856 37.3272 132.253C37.3272 132.253 38.8667 131.47 39.8572 133.237" stroke="#000072" stroke-miterlimit="10"/>
<path d="M22.2148 134.049C22.2148 134.049 23.0104 130.247 26.1775 131.507C26.1775 131.507 26.8046 128.381 30.981 129.42C30.981 129.42 31.5956 127.377 36.5513 129.989" stroke="#000072" stroke-miterlimit="10"/>
<path d="M21.0195 140.018C21.0195 140.018 21.1944 137.071 23.6137 139.121C23.6137 139.121 24.376 134.021 28.6028 137.307C28.6028 137.307 28.716 132.313 33.6345 135.135C33.6345 135.135 35.4441 132.347 38.5981 134.776C38.5981 134.776 39.1614 133.325 40.7352 134.776" stroke="#000072" stroke-miterlimit="10"/>
<path d="M21.0195 142.545C21.0195 142.545 22.0014 139.712 24.688 142.171C24.688 142.171 26.3321 137.546 29.8492 140.676C29.8492 140.676 31.2661 134.502 35.5804 138.742C35.5804 138.742 36.2514 134.711 39.6827 137.693C39.6827 137.693 39.9431 135.218 41.7521 137.206" stroke="#000072" stroke-miterlimit="10"/>
<path d="M21.8516 144.684C21.8516 144.684 22.7652 142.35 25.4272 144.025C25.4272 144.025 28.3215 140.342 30.9776 142.98C30.9776 142.98 33.8279 139.015 36.5478 142.028C36.5478 142.028 37.9625 138.308 40.7598 140.898C40.7598 140.898 41.7963 139.511 42.6336 140.711" stroke="#000072" stroke-miterlimit="10"/>
<path d="M22.8184 147.432C22.8184 147.432 24.4274 144.89 26.4846 146.408C26.4846 146.408 28.2872 143.511 32.2152 145.924C32.2152 145.924 34.0845 142.002 37.9309 144.964C37.9309 144.964 39.3218 141.627 41.7568 144.653C41.7568 144.653 41.766 141.414 43.4708 142.981" stroke="#000072" stroke-miterlimit="10"/>
<path d="M23.998 150.637V149.821C23.998 149.821 25.076 146.848 27.6569 148.787C27.6569 148.787 30.3218 145.974 33.1416 148.145C33.1416 148.145 36.0555 144.631 38.6913 147.432C38.6913 147.432 40.2784 144.361 42.636 147.421" stroke="#000072" stroke-miterlimit="10"/>
<path d="M26.0039 151.633C26.0039 151.633 26.1038 150.051 28.6607 150.636C28.6607 150.636 31.4014 148.723 34.1264 150.506C34.1264 150.506 36.0491 147.365 39.312 149.746C39.312 149.746 41.5714 147.298 43.1174 149.371" stroke="#000072" stroke-miterlimit="10"/>
<path d="M27.4258 153.607C27.4258 153.607 28.4135 152.223 30.2209 153.205C30.2209 153.205 32.5675 151.108 35.1148 152.853C35.1148 152.853 36.8869 150.379 39.8679 152.159C39.8679 152.159 41.7581 149.903 43.645 151.633" stroke="#000072" stroke-miterlimit="10"/>
<path d="M29.3848 155.01C29.3848 155.01 29.6948 153.544 31.3901 154.945C31.3901 154.945 33.3706 153.774 35.8746 155.01C35.8746 155.01 38.6057 153.433 40.3255 154.674C40.3255 154.674 42.5614 153.127 44.0472 154.604" stroke="#000072" stroke-miterlimit="10"/>
<path d="M32.2441 156.034C32.2441 156.034 33.5612 154.76 36.5493 156.285C36.5493 156.285 38.1895 155.363 39.6917 155.688C39.9063 155.735 40.1181 155.806 40.3219 155.91" stroke="#000072" stroke-miterlimit="10"/>
<path d="M40.5488 156.295C40.5488 156.295 42.0683 155.074 44.6492 155.915" stroke="#000072" stroke-miterlimit="10"/>
<path d="M43.4698 142.552C43.0164 143.501 44.7756 158.438 44.7756 158.438H66.7181L66.2509 157.332L61.2461 148.537L58.1134 140.276C51.0146 139.349 44.0465 124.034 44.0465 124.034L39.1055 128.874L40.3248 131.507L42.6381 136.432L43.4698 142.552Z" fill="#000072"/>
<path d="M168.552 127.934L157.811 157.332" stroke="#000072" stroke-miterlimit="10"/>
<path d="M171.407 131.524C171.407 131.524 169.497 150.283 160.533 157.783" stroke="#000072" stroke-miterlimit="10"/>
<path d="M164.414 127.756C164.414 127.756 157.14 143.851 153.686 157.512" stroke="#000072" stroke-miterlimit="10"/>
<path d="M158.371 129.168C158.371 129.168 153.077 138.313 150.33 159.213" stroke="#000072" stroke-miterlimit="10"/>
<path d="M173.191 136.48C173.191 136.48 172.612 133.88 170.776 135.631C170.776 135.631 170.01 130.982 166.39 133.852C166.39 133.852 165.368 129.89 162.191 132.936C162.191 132.936 159.718 129.149 156.638 132.936C156.638 132.936 156.002 131.977 154.512 133.237" stroke="#000072" stroke-miterlimit="10"/>
<path d="M173.377 139.111C173.377 139.111 172.697 136.56 170.193 138.453C170.193 138.453 168.737 135.256 165.128 137.307C165.128 137.307 164.281 134.069 160.53 136.178C160.53 136.178 159.421 133.712 155.685 135.464C155.685 135.464 154.811 133.905 153.246 135.602" stroke="#000072" stroke-miterlimit="10"/>
<path d="M173.381 142.172C173.381 142.172 171.951 139.424 169.508 141.204C169.508 141.204 167.225 138.225 163.926 140.604C163.926 140.604 162.678 137.7 159.506 139.682C159.506 139.682 157.883 136.48 154.515 138.743C154.515 138.743 153.898 137.055 151.449 138.454" stroke="#000072" stroke-miterlimit="10"/>
<path d="M172.788 144.652C172.788 144.652 171.945 141.936 168.611 144.189C168.611 144.189 166.338 140.701 162.946 143.283C162.946 143.283 161.479 139.73 158.369 142.633C158.369 142.633 157.389 139.742 153.686 141.939C153.686 141.939 153.144 139.677 151.564 141.618C149.984 143.559 151.146 141.581 151.146 141.581" stroke="#000072" stroke-miterlimit="10"/>
<path d="M171.891 147.35C171.891 147.35 170.684 144.316 167.71 146.698C167.71 146.698 165.85 144.221 162.029 145.785C162.029 145.785 159.719 143.23 157.041 145.784C157.041 145.784 155.217 143.187 152.823 145.351C152.823 145.351 151.89 141.089 149.639 145.208" stroke="#000072" stroke-miterlimit="10"/>
<path d="M170.065 149.451C170.065 149.451 169.992 146.681 166.783 148.909C166.783 148.909 164.669 146.191 160.947 148.747C160.947 148.747 158.935 145.95 156.213 148.905C156.213 148.905 154.359 146.195 152.059 148.819C152.059 148.819 151.987 144.3 148.883 147.842" stroke="#000072" stroke-miterlimit="10"/>
<path d="M168.553 151.797C168.553 151.797 168.076 150.285 165.513 151.453C165.513 151.453 162.73 149.527 159.978 151.404C159.978 151.404 158.39 149.347 155.484 151.19C155.484 151.19 153.092 149.269 151.448 151.11C151.448 151.11 151.593 147.674 148.105 150.312" stroke="#000072" stroke-miterlimit="10"/>
<path d="M166.708 153.632C166.708 153.632 166.314 151.926 164.186 153.632C164.186 153.632 161.769 152.136 159.051 153.943C159.051 153.943 156.377 152.383 154.656 153.943C154.656 153.943 152.813 151.641 150.862 153.943C150.862 153.943 150.265 150.901 148.381 153.409" stroke="#000072" stroke-miterlimit="10"/>
<path d="M165.079 154.511C165.079 154.511 164.196 153.767 163.311 154.845C163.311 154.845 159.777 153.888 158.367 155.809C158.367 155.809 156.849 154.285 154.131 155.809C154.131 155.809 152.802 153.559 150.811 155.809C150.811 155.809 149.713 152.817 147.656 155.809" stroke="#000072" stroke-miterlimit="10"/>
<path d="M137.041 140.034L144.093 133.774L149.64 125.106L150.327 123.182L154.983 127.935L155.348 130.295L152.824 132.935L151.447 136.177L150.86 140.034V142.106L150.812 143.488C150.812 143.488 148.403 153.946 149.64 158.062L128.162 158.553L127.461 157.332L130.969 151.055L134.82 142.727L137.041 140.034Z" fill="#000072"/>
<path d="M133.1 99.4366C133.1 99.4366 115.911 130.164 113.98 138.742" stroke="#000072" stroke-miterlimit="10"/>
<path d="M127.615 101.797C127.615 101.797 110.812 132.779 112.298 135.4" stroke="#000072" stroke-miterlimit="10"/>
<path d="M143.658 100.104C143.658 100.104 130.883 132.157 124.941 139.646" stroke="#000072" stroke-miterlimit="10"/>
<path d="M120.609 106.464C120.609 106.464 124.497 102.674 125.458 105.837C125.458 105.837 128.068 102.297 130.194 104.722C130.194 104.722 135.259 100.965 136.07 105.168C136.07 105.168 140.675 101.826 141.059 106.464C141.059 106.464 142.731 106.028 142.69 109.924C142.69 109.924 144.192 112.951 143.757 114.127" stroke="#000072" stroke-miterlimit="10"/>
<path d="M127.016 102.915C127.016 102.915 130.06 100.383 131.797 101.796C131.797 101.796 135.893 97.9718 138.028 101.153C138.028 101.153 142.078 100.494 142.15 103.829C142.15 103.829 143.79 105.724 143.662 106.462C143.662 106.462 141.785 118.082 138.194 124.986C138.194 124.986 133.434 140.032 128.586 141.236" stroke="#000072" stroke-miterlimit="10"/>
<path d="M120.023 108.797C120.023 108.797 122.457 105.998 123.9 108.797C123.9 108.797 127.469 105.627 127.613 108.797C127.613 108.797 133.247 106.288 133.99 109.436C133.99 109.436 138.149 106.705 138.99 111.374C138.99 111.374 142.988 109.996 141.72 114.748C141.72 114.748 143.939 114.213 143.52 117.201" stroke="#000072" stroke-miterlimit="10"/>
<path d="M117.832 112.295C117.832 112.295 121.368 109.252 121.814 112.833C121.814 112.833 125.238 109.762 125.425 113.644C125.425 113.644 131.543 110.751 131.404 114.748C131.404 114.748 135.678 113.493 136.445 117.256C136.445 117.256 140.137 116.121 140.521 119.296C140.521 119.296 143.244 119.14 142.989 121.166" stroke="#000072" stroke-miterlimit="10"/>
<path d="M115.951 116.171C115.951 116.171 118.676 111.98 120.332 116.146C120.332 116.146 122.536 114.314 123.537 116.909C123.537 116.909 128.897 115.262 129.366 118.928C129.366 118.928 132.993 116.828 134.802 120.144C134.802 120.144 139.008 119.504 139.62 121.79C139.62 121.79 141.538 121.24 142.227 123.184" stroke="#000072" stroke-miterlimit="10"/>
<path d="M114.879 118.597C114.879 118.597 117.401 117.383 118.152 120.142C118.152 120.142 120.764 118.037 121.812 120.562C121.812 120.562 126.088 119.055 127.459 122.214C127.459 122.214 132.091 120.596 133.597 123.575C133.597 123.575 136.738 122.806 138.452 124.769C138.452 124.769 140.536 124.048 140.82 126.008" stroke="#000072" stroke-miterlimit="10"/>
<path d="M113.074 121.839C113.074 121.839 116.57 119.447 116.564 123.46C116.564 123.46 119.601 121.481 120.025 123.952C120.025 123.952 124.752 122.69 125.92 126.009C125.92 126.009 129.856 123.367 131.799 127.399C131.799 127.399 135.849 125.402 136.767 128.693" stroke="#000072" stroke-miterlimit="10"/>
<path d="M111.783 125.682C111.783 125.682 114.485 122.998 115.387 126.009C115.387 126.009 117.874 124.07 118.792 126.822C118.792 126.822 123.142 125.711 124.612 128.693C124.612 128.693 128.517 127.15 130.418 130.216C130.418 130.216 133.794 128.233 135.538 131.252" stroke="#000072" stroke-miterlimit="10"/>
<path d="M110.57 128.216C110.57 128.216 113.339 126.638 114.21 128.694C114.21 128.694 116.635 127.15 117.569 129.444C117.569 129.444 122.325 128.543 123.063 131.253C123.063 131.253 127.405 130.109 129.091 132.808C129.091 132.808 132.389 131.732 134.299 133.867C134.299 133.867 135.072 133.44 135.071 135.4" stroke="#000072" stroke-miterlimit="10"/>
<path d="M109.516 130.601C109.516 130.601 112.474 129.204 113.074 130.996C113.074 130.996 116.249 129.824 116.505 131.829C116.505 131.829 121.888 130.706 122.208 133.631C122.208 133.631 126.975 132.316 127.679 135.399C127.679 135.399 131.811 133.833 132.725 137.307C132.725 137.307 134.337 136.603 134.804 138.742" stroke="#000072" stroke-miterlimit="10"/>
<path d="M58.6035 97.2006C58.6035 97.2006 73.9259 120.403 77.5065 135.4" stroke="#000072" stroke-miterlimit="10"/>
<path d="M67.3945 101.679C67.3945 101.679 78.8416 120.997 82.6422 133.781" stroke="#000072" stroke-miterlimit="10"/>
<path d="M51.2344 100.882C51.2344 100.882 64.5785 135.735 68.9483 138.453" stroke="#000072" stroke-miterlimit="10"/>
<path d="M50.7012 107.388C50.7012 107.388 61.4938 138.447 64.7133 140.035" stroke="#000072" stroke-miterlimit="10"/>
<path d="M52.1953 102.285C52.1953 102.285 52.493 98.6395 55.7173 100.751C55.7173 100.751 57.002 98.139 60.6546 100.418C60.6546 100.418 61.6243 99.0196 64.7096 100.158" stroke="#000072" stroke-miterlimit="10"/>
<path d="M51.4258 109.436C51.4258 109.436 51.7148 106.87 53.99 107.873C53.99 107.873 54.6943 104.318 58.6098 106.803C58.6098 106.803 59.3363 103.064 63.6583 105.352C63.6583 105.352 66.3744 102.075 69.5024 105.352C69.5024 105.352 71.7914 103.393 73.463 105.352" stroke="#000072" stroke-miterlimit="10"/>
<path d="M50.7012 106.355C50.7012 106.355 51.7048 104.794 52.9104 105.352C52.9104 105.352 54.2102 101.957 57.0171 103.469C57.0171 103.469 58.7958 101.008 62.0058 102.605C62.0058 102.605 65.3478 101.187 67.3961 102.066" stroke="#000072" stroke-miterlimit="10"/>
<path d="M50.3301 114.301C50.3301 114.301 50.7159 112.574 52.9052 113.568C52.9052 113.568 53.207 110.958 55.7158 112.307C55.7158 112.307 56.3593 108.723 60.8244 110.942C60.8244 110.942 61.2751 106.761 66.0138 109.436C66.0138 109.436 68.0979 106.231 71.2545 108.542C71.2545 108.542 71.6063 106.717 74.025 108.269" stroke="#000072" stroke-miterlimit="10"/>
<path d="M50.7012 118.332C50.7012 118.332 51.7 115.475 54.2494 117.201C54.2494 117.201 54.7766 114.155 57.3974 116.17C57.3974 116.17 59.3391 113.369 62.1826 114.748C62.1826 114.748 64.741 110.949 68.0583 113.125C68.0583 113.125 70.4671 110.199 73.0677 111.927C73.0677 111.927 73.1602 110.811 75.6215 111.374" stroke="#000072" stroke-miterlimit="10"/>
<path d="M51.4375 121.166C51.4375 121.166 52.1237 118.229 55.3547 120.143C55.3547 120.143 56.855 118.134 58.8096 119.487C58.8096 119.487 60.4911 116.089 63.9651 118.044C63.9651 118.044 66.2971 114.95 70.0428 116.897C70.0428 116.897 71.7545 114.314 75.0519 115.794C75.0519 115.794 74.772 114.276 77.2761 115.242" stroke="#000072" stroke-miterlimit="10"/>
<path d="M52.7051 124.035C52.7051 124.035 53.4573 121.457 56.0651 122.751C56.0651 122.751 57.619 120.054 59.9793 122.088C59.9793 122.088 61.0197 118.658 65.4356 121.002C65.4356 121.002 67.5427 118.009 71.4246 119.473C71.4246 119.473 72.9659 116.642 76.441 118.374C76.441 118.374 77.1633 116.969 78.9178 118.092" stroke="#000072" stroke-miterlimit="10"/>
<path d="M52.9082 126.594C52.9082 126.594 53.9665 123.293 56.8572 124.035C56.8572 124.035 59.4545 122.747 60.7637 123.926C60.7637 123.926 64.498 121.342 66.4155 123.183C66.4155 123.183 70.274 120.373 72.6123 122.163C72.6123 122.163 75.2472 120.125 77.8265 121.544C77.8265 121.544 79.2397 120.109 80.9853 121.165" stroke="#000072" stroke-miterlimit="10"/>
<path d="M82.6439 125.107C82.6439 125.107 79.9564 121.836 79.3327 124.913C79.3327 124.913 74.745 122.381 74.3124 126.009C74.3124 126.009 69.806 122.892 68.221 126.965C68.221 126.965 63.6129 124.631 62.4416 127.917C62.4416 127.917 59.5028 125.085 59.0488 128.694C59.0488 128.694 57.5144 128.154 57.2461 129.555" stroke="#000072" stroke-miterlimit="10"/>
<path d="M83.8538 127.917C83.8538 127.917 81.369 125.39 80.708 128.255C80.708 128.255 77.0555 126.042 75.5107 129.034C75.5107 129.034 71.5718 127.201 70.0413 130.602C70.0413 130.602 65.8278 128.439 64.7099 132.169C64.7099 132.169 61.8162 131.09 60.8262 133.783C60.8262 133.783 59.3384 133.419 58.6035 135.4" stroke="#000072" stroke-miterlimit="10"/>
<path d="M84.4358 130.082C84.4358 130.082 82.5606 126.961 81.6847 130.847C81.6847 130.847 79.3576 129.514 76.6328 132.253C76.6328 132.253 73.1475 131.153 71.2344 133.278C71.2344 133.278 68.4739 132.579 66.471 134.444C66.3609 134.547 66.2533 134.657 66.1484 134.775" stroke="#000072" stroke-miterlimit="10"/>
<path d="M66.2496 134.657C66.2496 134.657 63.6753 134.441 62.338 136.652C62.338 136.652 60.4804 136.725 59.6227 138.741C58.7651 140.758 59.2203 138.452 59.2203 138.452" stroke="#000072" stroke-miterlimit="10"/>
<path fill-rule="evenodd" clip-rule="evenodd" d="M96.9838 15.22C126.553 15.22 149.3 43.571 149.3 67.2442C149.3 90.9179 107.607 100.484 96.9838 100.951C86.3601 101.418 42.5 90.2236 42.5 66.55C42.5 42.8764 67.4146 15.22 96.9838 15.22Z" fill="#FF850B"/>
<path d="M96.9838 16.3714C67.4953 16.3714 43.7496 43.8222 43.7496 66.5503C43.7496 72.4604 46.6653 78.0182 52.4162 83.0694C65.2259 94.3209 88.5974 99.8129 96.3249 99.8136C96.5371 99.8136 96.7361 99.8095 96.9244 99.8012C102.523 99.5553 115.421 96.9011 126.567 91.7704C136.368 87.2592 148.05 79.3422 148.05 67.2444C148.05 43.7186 125.743 16.3714 96.9838 16.3714ZM96.3564 102.115C88.0669 102.115 64.1768 96.5806 50.6916 84.7359C44.4269 79.2331 41.25 73.1146 41.25 66.5503C41.25 54.7007 47.4132 41.495 57.7365 31.2254C68.6966 20.3223 83.0016 14.069 96.9838 14.069C111.053 14.069 124.617 20.2964 135.177 31.6041C144.803 41.9107 150.55 55.2341 150.55 67.2444C150.55 77.7514 142.643 86.9446 127.684 93.8301C116.213 99.1104 102.861 101.846 97.0432 102.101C96.8286 102.111 96.5986 102.115 96.3564 102.115Z" fill="#000072"/>
<g opacity="0.5">
<g opacity="0.5">
<path opacity="0.5" fill-rule="evenodd" clip-rule="evenodd" d="M96.9769 15.2222C115.15 15.2222 130.744 25.9329 140.066 39.6832C140.163 40.1275 140.256 40.5737 140.338 41.0234C131.827 29.531 118.557 21.9528 103.861 19.9085C104.804 20.2365 105.35 20.6259 105.35 21.044C105.35 22.2124 101.078 23.1596 95.8082 23.1596C90.539 23.1596 86.267 22.2124 86.267 21.044C86.267 20.6259 86.8123 20.2365 87.7552 19.9085C73.0585 21.9532 59.79 29.5319 51.2793 41.0234L51.3263 40.7812C61.1398 26.4816 78.1103 15.2222 96.9769 15.2222Z" fill="white"/>
</g>
</g>
<path fill-rule="evenodd" clip-rule="evenodd" d="M147.894 74.5183C140.541 92.9032 106.442 100.535 96.9819 100.951C87.6189 101.362 52.4462 92.714 44.2285 74.4508C44.8586 64.5031 50.3447 61.7842 60.4905 66.6455C64.6628 68.6442 68.9072 70.7291 72.2703 69.1417C91.4671 60.0777 103.189 61.7865 116.328 69.1417C122.473 72.5815 128.47 67.4504 132.232 65.8861C144.214 60.9022 149.711 64.3879 147.894 74.5183Z" fill="white"/>
<g opacity="0.300003">
<g opacity="0.300003">
<path opacity="0.300003" fill-rule="evenodd" clip-rule="evenodd" d="M149.076 63.1104C149.225 64.4997 149.304 65.8801 149.304 67.2444C149.304 68.1166 149.241 68.9665 149.131 69.8009L149.143 69.5514C147.682 85.3501 113.147 97.4132 94.5677 98.387C79.0588 99.2004 48.0836 83.8211 42.8753 69.5514C42.885 69.8473 42.9015 70.1426 42.916 70.4375C42.6507 69.1807 42.5039 67.8864 42.5039 66.5502C42.5039 65.4866 42.5562 64.4149 42.6545 63.3375L42.7354 63.1068C54.8425 79.1419 74.7039 88.7029 95.9077 88.7029C117.109 88.7029 136.969 79.1424 149.076 63.1104Z" fill="#000072"/>
</g>
</g>
<path fill-rule="evenodd" clip-rule="evenodd" d="M77.8535 55.5456C76.2001 54.8665 74.5074 53.7284 72.7779 52.1334C69.7796 52.2588 67.3809 55.2092 67.3809 58.8301C67.3809 62.5309 69.8857 65.5312 72.9756 65.5312C76.0659 65.5312 78.5707 62.5309 78.5707 58.8301C78.5707 57.6367 78.3102 56.5164 77.8535 55.5456Z" fill="#000072"/>
<path d="M124.808 49.2376C122.79 51.7071 120.806 53.6166 118.856 54.9662C115.988 56.9516 112.883 57.2992 112.539 55.1126C114.082 54.9498 115.69 54.289 117.362 53.1316C121.484 50.2781 122.773 48.4408 124.808 49.2376Z" fill="#000072"/>
<path fill-rule="evenodd" clip-rule="evenodd" d="M115.401 55.5456C117.054 54.8665 118.747 53.7284 120.477 52.1334C123.475 52.2588 125.874 55.2092 125.874 58.8301C125.874 62.5309 123.369 65.5312 120.279 65.5312C117.188 65.5312 114.684 62.5309 114.684 58.8301C114.684 57.6367 114.944 56.5164 115.401 55.5456Z" fill="#000072"/>
<path fill-rule="evenodd" clip-rule="evenodd" d="M117.969 57.1238C117.061 57.1238 116.326 57.8457 116.326 58.7357C116.326 59.6258 117.061 60.3477 117.969 60.3477C118.876 60.3477 119.611 59.6258 119.611 58.7357C119.611 57.8457 118.876 57.1238 117.969 57.1238Z" fill="white"/>
<path fill-rule="evenodd" clip-rule="evenodd" d="M95.9029 60.0057C99.9042 60.0057 103.148 61.9978 103.148 64.4548C103.148 66.9122 99.9042 68.9043 95.9029 68.9043C91.9016 68.9043 88.6582 66.9122 88.6582 64.4548C88.6582 61.9978 91.9016 60.0057 95.9029 60.0057Z" fill="#000072"/>
<path d="M102.826 74.3574C100.276 74.3574 97.8094 73.4839 95.9167 71.9228C93.8028 73.6962 90.8888 74.5211 88.0248 74.1016C84.6978 73.6146 81.8762 71.514 80.6606 68.6195C80.4117 68.0264 80.7317 67.3598 81.3755 67.1304C82.0188 66.9012 82.7426 67.1959 82.9919 67.7888C83.8871 69.9213 85.966 71.469 88.417 71.8277C90.8695 72.1867 93.3661 71.3092 94.9352 69.5384C95.1695 69.2738 95.5193 69.1188 95.8898 69.1151C96.2634 69.1155 96.6133 69.2594 96.8541 69.519C98.4907 71.2857 100.963 72.2241 103.478 72.0298C105.99 71.8357 108.262 70.5297 109.556 68.5366C109.91 67.9906 110.678 67.8126 111.27 68.1392C111.862 68.4654 112.055 69.1723 111.701 69.718C109.995 72.3461 107 74.0682 103.687 74.3241C103.4 74.3465 103.112 74.3574 102.826 74.3574Z" fill="#000072"/>
<path fill-rule="evenodd" clip-rule="evenodd" d="M95.9056 70.2659C98.5106 72.547 101.07 73.5174 103.585 73.1766C104.207 88.2122 87.6598 87.5997 88.223 72.9642C91.3057 73.3247 93.8657 72.4257 95.9056 70.2659Z" fill="#000072"/>
<path d="M89.469 74.194C89.593 78.0251 91.068 81.0371 93.5249 82.3771C95.148 83.262 96.982 83.2745 98.5575 82.4103C100.909 81.1198 102.262 78.2314 102.349 74.3911C100.223 74.3283 98.0861 73.4806 95.9705 71.8596C94.1494 73.4121 91.9901 74.1942 89.5257 74.1942C89.5071 74.1942 89.488 74.1942 89.469 74.194ZM96.0935 85.3477C94.7804 85.3478 93.4607 85.0177 92.2516 84.3583C88.6937 82.4178 86.7707 78.2502 86.9758 72.924L87.0244 71.6641L88.3819 71.8229C91.0507 72.1343 93.2005 71.378 94.9642 69.5109L95.8214 68.6033L96.768 69.4321C99.1015 71.4751 101.275 72.328 103.404 72.0381L104.782 71.8515L104.835 73.1333C105.054 78.423 103.232 82.5254 99.8365 84.3886C98.6706 85.028 97.3854 85.3477 96.0935 85.3477Z" fill="#000072"/>
<path fill-rule="evenodd" clip-rule="evenodd" d="M96.0413 78.5809C93.8164 78.5809 91.7266 79.5621 90.4199 81.2195C93.428 85.1657 98.7617 85.2304 101.635 81.186C100.327 79.5487 98.2502 78.5809 96.0413 78.5809Z" fill="#FF0066"/>
<path d="M92.0386 81.2451C93.197 82.4216 94.6543 83.0595 96.1664 83.0465C97.6278 83.0246 98.9761 82.3892 100.037 81.2388C98.9799 80.2835 97.5412 79.7313 96.0414 79.7313C94.5358 79.7313 93.0958 80.2855 92.0386 81.2451ZM96.0886 85.3496C93.5149 85.3496 91.0818 84.0899 89.3976 81.8802L88.8848 81.2074L89.4091 80.5422C90.946 78.5927 93.4253 77.4288 96.0414 77.4288C98.6365 77.4288 101.104 78.5778 102.642 80.5026L103.157 81.1466L102.681 81.8157C101.113 84.0227 98.7533 85.3105 96.2072 85.3486C96.1677 85.3493 96.128 85.3496 96.0886 85.3496Z" fill="#000072"/>
<path fill-rule="evenodd" clip-rule="evenodd" d="M143.216 43.1562C135.19 30.9388 125.568 22.6672 114.348 18.3427C136.356 -10.0664 145.979 -1.79519 143.216 43.1562Z" fill="#FF850B"/>
<path d="M116.264 17.8593C126.114 22.0006 134.809 29.2598 142.165 39.4797C143.507 11.7818 139.429 4.41058 135.677 3.19513C132.814 2.26821 127.137 4.11147 116.264 17.8593ZM144.233 46.9316L142.144 43.7521C134.295 31.8044 124.78 23.6127 113.862 19.4046L112.418 18.8478L113.327 17.6737C123.395 4.67873 130.975 -0.769756 136.506 1.02315C143.562 3.30944 146.09 16.7181 144.461 43.2212L144.233 46.9316Z" fill="#000072"/>
<path fill-rule="evenodd" clip-rule="evenodd" d="M112.433 44.6431C114.284 43.9439 116.15 44.1974 116.601 45.2093C117.051 46.2212 115.915 47.6087 114.065 48.3083C112.214 49.0073 110.348 48.7535 109.897 47.7416C109.447 46.7297 110.583 45.3422 112.433 44.6431Z" fill="white"/>
<path fill-rule="evenodd" clip-rule="evenodd" d="M80.188 44.5752C78.3369 43.8756 76.4709 44.1294 76.0205 45.1413C75.57 46.1532 76.7053 47.5407 78.5563 48.2397C80.4069 48.9389 82.2729 48.6854 82.7234 47.6736C83.1737 46.6618 82.0385 45.2742 80.188 44.5752Z" fill="white"/>
<path fill-rule="evenodd" clip-rule="evenodd" d="M73.799 57.1238C72.8914 57.1238 72.1562 57.8457 72.1562 58.7357C72.1562 59.6258 72.8914 60.3477 73.799 60.3477C74.7062 60.3477 75.4413 59.6258 75.4413 58.7357C75.4413 57.8457 74.7062 57.1238 73.799 57.1238Z" fill="white"/>
<path fill-rule="evenodd" clip-rule="evenodd" d="M49.4312 43.7383C57.4565 31.5204 67.0792 23.2492 78.2991 18.9242C56.2904 -9.48487 46.6677 -1.21324 49.4312 43.7383Z" fill="#FF850B"/>
<path d="M58.3034 3.57494C57.801 3.57494 57.3578 3.64985 56.9669 3.77658C53.2155 4.9921 49.1372 12.3631 50.4794 40.0611C57.8351 29.8415 66.5295 22.5823 76.38 18.4405C66.9913 6.57023 61.4768 3.57494 58.3034 3.57494ZM48.4114 47.5137L48.1832 43.8028C46.554 17.2996 49.0815 3.89096 56.1376 1.60448C61.6657 -0.186249 69.2479 5.25911 79.316 18.255L80.2256 19.429L78.7811 19.9858C67.8631 24.1944 58.3479 32.3863 50.5001 44.3338L48.4114 47.5137Z" fill="#000072"/>
<g opacity="0.649994">
<g opacity="0.649994">
<path opacity="0.649994" fill-rule="evenodd" clip-rule="evenodd" d="M75.548 20.082C76.4561 19.6684 77.3758 19.2825 78.3061 18.9233C64.6657 1.31601 55.7854 -2.19477 51.6602 8.37685C56.0533 0.943027 64.0152 4.84422 75.5465 20.0811L75.548 20.082Z" fill="white"/>
</g>
</g>
<path fill-rule="evenodd" clip-rule="evenodd" d="M55.4396 35.4551C59.3518 30.9977 63.7857 27.1393 68.7416 23.8811C57.6321 3.95211 53.1978 7.80997 55.4396 35.4551Z" fill="#000072"/>
<path d="M58.2981 12.5117C58.2434 12.5117 58.2061 12.5184 58.1843 12.524C58.0505 12.5587 56.8632 13.0095 56.355 18.0851C56.0127 21.5049 56.0532 26.3609 56.4739 32.5459C59.7042 29.1793 63.2777 26.1581 67.1369 23.5328C61.2912 13.2403 58.8663 12.5117 58.2981 12.5117ZM54.4277 38.4395L54.193 35.5421C52.4871 14.5059 54.9107 10.9813 57.5068 10.3078C60.6113 9.50042 64.305 13.4044 69.8529 23.3564L70.3464 24.2416L69.4671 24.8195C64.6281 28.0007 60.2353 31.823 56.4108 36.1802L54.4277 38.4395Z" fill="#000072"/>
<g opacity="0.300003">
<g opacity="0.300003">
<path opacity="0.300003" fill-rule="evenodd" clip-rule="evenodd" d="M56.8809 12.0246C52.8267 14.8175 50.2081 22.3739 49.0254 34.6931C49.0966 37.5221 49.2308 40.5367 49.4274 43.7383C50.027 42.7394 50.6609 41.7521 51.3307 40.7803L51.2838 41.0226C54.5223 36.4723 58.0059 32.5274 61.7335 29.1876C59.5537 31.0814 57.4998 33.1204 55.5713 35.3038C55.5335 35.3467 55.4957 35.3891 55.458 35.4328C55.4546 35.4363 55.4512 35.4403 55.4473 35.4453C55.4439 35.4489 55.4411 35.4524 55.4376 35.456C54.3513 22.0612 54.8327 14.2509 56.8809 12.0246ZM135.758 11.4424C139.812 14.2357 142.431 21.7917 143.613 34.1108C143.542 36.9398 143.408 39.9549 143.212 43.1561C142.612 42.1571 141.978 41.1702 141.308 40.1981L141.355 40.4404C138.117 35.8901 134.633 31.9452 130.905 28.6058C133.085 30.4997 135.139 32.5386 137.067 34.722C137.105 34.7645 137.143 34.8073 137.181 34.8506C137.184 34.8545 137.187 34.8586 137.191 34.863C137.195 34.867 137.198 34.8702 137.201 34.8742C138.288 21.4794 137.806 13.6686 135.758 11.4424Z" fill="#000072"/>
</g>
</g>
<g opacity="0.649994">
<g opacity="0.649994">
<path opacity="0.649994" fill-rule="evenodd" clip-rule="evenodd" d="M117.108 19.5C116.2 19.0864 115.28 18.7005 114.35 18.3418C127.99 0.734411 136.871 -2.77682 140.996 7.79481C136.603 0.360977 128.64 4.26256 117.109 19.4996L117.108 19.5Z" fill="white"/>
</g>
</g>
<path fill-rule="evenodd" clip-rule="evenodd" d="M137.202 34.873C133.29 30.4151 128.856 26.5568 123.9 23.2985C135.01 3.3694 139.445 7.22767 137.202 34.873Z" fill="#000072"/>
<path d="M125.504 22.9499C129.364 25.5757 132.938 28.5973 136.167 31.9634C136.588 25.7783 136.628 20.9224 136.286 17.5024C135.778 12.4267 134.591 11.9759 134.457 11.9413C134.21 11.8782 131.913 11.6657 125.504 22.9499ZM138.213 37.8574L136.23 35.5979C132.407 31.2411 128.014 27.4186 123.174 24.2366L122.295 23.6587L122.788 22.7737C128.336 12.8223 132.026 8.91849 135.135 9.72508C137.73 10.3985 140.154 13.9232 138.448 34.9598L138.213 37.8574Z" fill="#000072"/>
<path d="M58.3039 3.57518C57.8015 3.57518 57.3583 3.65008 56.9674 3.77682C53.216 4.99234 49.1374 12.3635 50.4796 40.0614C57.8356 29.8417 66.53 22.5823 76.3805 18.4407C66.9919 6.57046 61.4774 3.57518 58.3039 3.57518ZM48.4112 47.5137L48.183 43.803C46.5541 17.2998 49.082 3.89101 56.1381 1.60472C61.6662 -0.186001 69.2484 5.25934 79.3166 18.2552L80.2261 19.4292L78.7817 19.986C67.8637 24.1945 58.3484 32.3864 50.5 44.334L48.4112 47.5137Z" fill="#000072"/>
<path d="M96.9838 16.3714C67.4953 16.3714 43.7496 43.8222 43.7496 66.5503C43.7496 72.4604 46.6653 78.0182 52.4162 83.0694C65.2259 94.3209 88.5974 99.8129 96.3249 99.8136C96.5371 99.8136 96.7361 99.8095 96.9244 99.8012C102.523 99.5553 115.421 96.9011 126.567 91.7704C136.368 87.2592 148.05 79.3422 148.05 67.2444C148.05 43.7186 125.743 16.3714 96.9838 16.3714ZM96.3564 102.115C88.0669 102.115 64.1768 96.5806 50.6916 84.7359C44.4269 79.2331 41.25 73.1146 41.25 66.5503C41.25 54.7007 47.4132 41.495 57.7365 31.2254C68.6966 20.3223 83.0016 14.069 96.9838 14.069C111.053 14.069 124.617 20.2964 135.177 31.6041C144.803 41.9107 150.55 55.2341 150.55 67.2444C150.55 77.7514 142.643 86.9446 127.684 93.8301C116.213 99.1104 102.861 101.846 97.0432 102.101C96.8286 102.111 96.5986 102.115 96.3564 102.115Z" fill="#000072"/>
<g opacity="0.559998">
<g opacity="0.559998">
<path opacity="0.559998" fill-rule="evenodd" clip-rule="evenodd" d="M98.2575 61.7905C99.35 62.056 100.158 62.5396 100.063 62.8716C99.9685 63.203 99.0062 63.257 97.9136 62.9916C96.821 62.7266 96.0122 62.2425 96.1072 61.9105C96.2021 61.5791 97.1649 61.5251 98.2575 61.7905Z" fill="white"/>
</g>
</g>
<path d="M69.3516 49.2376C71.3701 51.7071 73.3544 53.6166 75.3041 54.9662C78.1728 56.9516 81.2776 57.2992 81.6215 55.1126C80.0784 54.9498 78.4706 54.289 76.7978 53.1316C72.6763 50.2781 71.3871 48.4408 69.3516 49.2376Z" fill="#000072"/>
<path d="M116.264 17.8593C126.114 22.0006 134.809 29.2598 142.165 39.4797C143.507 11.7818 139.429 4.41058 135.677 3.19513C132.814 2.26821 127.137 4.11147 116.264 17.8593ZM144.233 46.9316L142.144 43.7521C134.295 31.8044 124.78 23.6127 113.862 19.4046L112.418 18.8478L113.327 17.6737C123.395 4.67873 130.975 -0.769756 136.506 1.02315C143.562 3.30944 146.09 16.7181 144.461 43.2212L144.233 46.9316Z" fill="#000072"/>
</svg>
