<svg width="58" height="44" viewBox="0 0 58 44" fill="none" xmlns="http://www.w3.org/2000/svg">
<path d="M52.6918 0.386938C52.6918 0.386938 58.0198 -1.51008 57.5741 3.09661C57.4274 4.99362 56.0957 11.6338 55.0589 18.8149L51.5069 40.0891C51.5069 40.0891 51.2107 43.2057 48.546 43.7479C45.8827 44.2888 41.8864 41.8509 41.1458 41.3087C40.5534 40.9017 30.0455 34.8037 26.3454 31.8236C25.3086 31.0097 24.1237 29.3844 26.4936 27.4874L42.0331 13.9365C43.8091 12.3112 45.5851 8.5172 38.1849 13.1239L17.4627 25.9961C17.4627 25.9961 15.0943 27.3521 10.655 26.1325L1.03308 23.4216C1.03308 23.4216 -2.5189 21.3894 3.54965 19.3571C18.3514 12.9886 36.5571 6.48494 52.6891 0.386938H52.6918Z" fill="white"/>
</svg>
