<svg width="59" height="44" viewBox="0 0 59 44" fill="none" xmlns="http://www.w3.org/2000/svg">
<path d="M59 5.19853C56.8303 6.07701 54.4995 6.67058 52.0492 6.93887C54.5775 5.55655 56.469 3.38094 57.3708 0.817983C54.9954 2.10719 52.3957 3.01465 49.6846 3.50092C47.8615 1.72226 45.4467 0.543341 42.8152 0.147187C40.1837 -0.248966 37.4826 0.159812 35.1314 1.31006C32.7802 2.4603 30.9104 4.28766 29.8122 6.50842C28.7141 8.72919 28.449 11.2191 29.0583 13.5916C24.2452 13.3708 19.5366 12.2277 15.2383 10.2365C10.94 8.24534 7.14787 5.45058 4.10812 2.03361C3.06875 3.67187 2.47111 5.57129 2.47111 7.59417C2.46995 9.41523 2.96074 11.2084 3.89993 12.8146C4.83912 14.4208 6.19768 15.7903 7.85506 16.8016C5.93294 16.7457 4.05322 16.2712 2.37237 15.4174V15.5599C2.37217 18.114 3.33907 20.5895 5.10899 22.5664C6.87892 24.5432 9.34285 25.8997 12.0827 26.4056C10.2996 26.8465 8.43019 26.9115 6.61561 26.5955C7.38864 28.7932 8.89442 30.715 10.9222 32.0918C12.9499 33.4686 15.3981 34.2316 17.924 34.2739C13.6361 37.3496 8.34067 39.018 2.88946 39.0106C1.92383 39.0109 0.95902 38.9593 0 38.8563C5.5333 42.1071 11.9745 43.8324 18.5528 43.8257C40.8214 43.8257 52.995 26.973 52.995 12.357C52.995 11.8821 52.982 11.4025 52.9586 10.9277C55.3266 9.36295 57.3706 7.42535 58.9948 5.20565L59 5.19853Z" fill="white"/>
</svg>
